<svg width="63" height="83" viewBox="0 0 63 83" fill="none" xmlns="http://www.w3.org/2000/svg">
<path d="M62.8354 33.3668C64.146 24.6454 57.4746 19.9573 48.352 16.8299L51.3115 5.01608L44.0858 3.22414L41.2049 14.727C39.3054 14.2554 37.3546 13.8111 35.4158 13.3707L38.3176 1.79194L31.0965 0L28.1354 11.81C26.5635 11.4538 25.0196 11.1018 23.5217 10.7308L23.53 10.6936L13.5658 8.21716L11.6437 15.8981C11.6437 15.8981 17.0045 17.1211 16.8915 17.1964C19.8175 17.9232 20.3466 19.851 20.2587 21.379L16.8876 34.8377C17.0891 34.8887 17.3505 34.9623 17.6388 35.0777C17.3978 35.0181 17.1413 34.953 16.8751 34.8896L12.15 53.7434C11.7924 54.6282 10.8848 55.956 8.83906 55.4517C8.91147 55.5562 3.58738 54.1474 3.58738 54.1474L0 62.3793L9.40294 64.7122C11.1522 65.1488 12.8664 65.6056 14.5545 66.0352L11.5645 77.9846L18.7817 79.7765L21.7428 67.954C23.7145 68.4867 25.6279 68.9781 27.5011 69.4413L24.55 81.2081L31.7759 83L34.7656 71.0731C47.0868 73.3939 56.3514 72.4582 60.2509 61.3664C63.3932 52.4361 60.0945 47.2852 53.6124 43.9262C58.3336 42.8425 61.8898 39.7519 62.838 33.3677L62.8354 33.3668ZM46.3266 56.407C44.0936 65.3372 28.9864 60.5098 24.0885 59.2993L28.0563 43.4684C32.9539 44.6854 48.66 47.0936 46.3266 56.407ZM48.5612 33.2373C46.5242 41.3603 33.9504 37.2335 29.8715 36.2216L33.4689 21.864C37.5477 22.8759 50.6826 24.7646 48.5612 33.2373Z" fill="#695271"/>
</svg>
