<svg width="32" height="32" viewBox="0 0 32 32" fill="none" xmlns="http://www.w3.org/2000/svg">
<path d="M29.9461 7.99967C28.9194 8.46634 27.8127 8.77301 26.6661 8.91967C27.8394 8.21301 28.7461 7.09301 29.1727 5.74634C28.0661 6.41301 26.8394 6.87967 25.5461 7.14634C24.4927 5.99967 23.0127 5.33301 21.3327 5.33301C18.1994 5.33301 15.6394 7.89301 15.6394 11.053C15.6394 11.5063 15.6927 11.9463 15.7861 12.3597C11.0394 12.1197 6.81273 9.83967 3.9994 6.38634C3.50607 7.22634 3.22607 8.21301 3.22607 9.25301C3.22607 11.2397 4.22607 12.9997 5.77273 13.9997C4.82607 13.9997 3.94607 13.733 3.17273 13.333V13.373C3.17273 16.1463 5.14607 18.4663 7.7594 18.9863C6.92037 19.216 6.03953 19.2479 5.18607 19.0797C5.54821 20.2163 6.25745 21.2109 7.21409 21.9236C8.17073 22.6363 9.32666 23.0313 10.5194 23.053C8.49757 24.6536 5.9914 25.5188 3.41273 25.5063C2.9594 25.5063 2.50607 25.4797 2.05273 25.4263C4.58607 27.053 7.5994 27.9997 10.8261 27.9997C21.3327 27.9997 27.1061 19.2797 27.1061 11.7197C27.1061 11.4663 27.1061 11.2263 27.0927 10.973C28.2127 10.173 29.1727 9.15967 29.9461 7.99967Z" fill="white"/>
</svg>
