<svg width="1440" height="640" viewBox="0 0 1440 640" fill="none" xmlns="http://www.w3.org/2000/svg">
<g filter="url(#filter0_i_1621_1386)">
<path d="M-3 0H178H721H1264H1445V640H-3V0Z" fill="#ECFFFC"/>
</g>
<path d="M-2.5 0.5H178H721H1264H1444.5V639.5H-2.5V0.5Z"/>
<g style="mix-blend-mode:color-burn">
<path d="M31.5 181H-7C-11.4183 181 -15 184.582 -15 189V630.5C-15 634.918 -11.4183 638.5 -7.00001 638.5H384C388.418 638.5 392 634.918 392 630.5V620C392 615.582 388.418 612 384 612H310C305.582 612 302 608.418 302 604V587C302 582.582 305.582 579 310 579H359.5C363.918 579 367.5 575.418 367.5 571V567.5C367.5 563.082 371.082 559.5 375.5 559.5H409.5C413.918 559.5 417.5 555.918 417.5 551.5V542C417.5 537.582 413.918 534 409.5 534H268C263.582 534 260 530.418 260 526V516C260 511.582 256.418 508 252 508H203C198.582 508 195 504.418 195 500V490.5C195 486.082 191.418 482.5 187 482.5H70.5C66.0817 482.5 62.5 478.918 62.5 474.5V454C62.5 449.582 66.0817 446 70.5 446H201C205.418 446 209 442.418 209 438V427.5C209 423.082 205.418 419.5 201 419.5H129C124.582 419.5 121 415.918 121 411.5V405C121 400.582 124.582 397 129 397H155C159.418 397 163 393.418 163 389V379.5C163 375.082 159.418 371.5 155 371.5H110.5C106.082 371.5 102.5 367.918 102.5 363.5V358.5C102.5 354.082 106.082 350.5 110.5 350.5H113C117.418 350.5 121 346.918 121 342.5V338.5C121 334.082 117.418 330.5 113 330.5H80C75.5817 330.5 72 326.918 72 322.5V311C72 306.582 75.5817 303 80 303H178C182.418 303 186 299.418 186 295V284.5C186 280.082 189.582 276.5 194 276.5H215C219.418 276.5 223 272.918 223 268.5V261.5C223 257.082 219.418 253.5 215 253.5H110.5C106.082 253.5 102.5 249.918 102.5 245.5V241C102.5 236.582 106.082 233 110.5 233H134C138.418 233 142 229.418 142 225V216.5C142 212.082 138.418 208.5 134 208.5H47.5C43.0817 208.5 39.5 204.918 39.5 200.5V189C39.5 184.582 35.9183 181 31.5 181Z" fill="#53BF8D"/>
</g>
<g style="mix-blend-mode:color-burn">
<path d="M530 120.691V116.191C530 111.773 533.582 108.191 538 108.191H569C573.418 108.191 577 104.61 577 100.191V95.6914C577 91.2731 580.582 87.6914 585 87.6914H614C618.418 87.6914 622 91.2731 622 95.6914V100.191C622 104.61 625.582 108.191 630 108.191H808.5C812.918 108.191 816.5 104.61 816.5 100.191V95.6914C816.5 91.2731 820.082 87.6914 824.5 87.6914H902C906.418 87.6914 910 91.2731 910 95.6914V100.191C910 104.61 906.418 108.191 902 108.191H879.5C875.082 108.191 871.5 111.773 871.5 116.191V120.691C871.5 125.11 867.918 128.691 863.5 128.691H796.5C792.082 128.691 788.5 132.273 788.5 136.691V144.191C788.5 148.61 784.918 152.191 780.5 152.191H630C625.582 152.191 622 148.61 622 144.191V136.691C622 132.273 618.418 128.691 614 128.691H538C533.582 128.691 530 125.11 530 120.691Z" fill="#53BF8D"/>
</g>
<g style="mix-blend-mode:color-burn">
<path d="M1313 193H1451C1455.42 193 1459 196.582 1459 201V544C1459 548.418 1455.42 552 1451 552H1313C1308.58 552 1305 548.418 1305 544V538.521C1305 534.103 1308.58 530.521 1313 530.521H1375.55C1379.97 530.521 1383.55 526.94 1383.55 522.521V515.202C1383.55 510.783 1379.97 507.202 1375.55 507.202H1252.41C1247.99 507.202 1244.41 503.62 1244.41 499.202V498.019C1244.41 493.601 1240.83 490.019 1236.41 490.019H1194.57C1190.15 490.019 1186.57 486.437 1186.57 482.019V471.631C1186.57 467.212 1182.99 463.631 1178.57 463.631H1103C1098.58 463.631 1095 460.049 1095 455.631V447.697C1095 443.279 1098.58 439.697 1103 439.697H1145C1149.42 439.697 1153 436.116 1153 431.697V428.06C1153 423.642 1149.42 420.06 1145 420.06H1139.53C1135.11 420.06 1131.53 416.478 1131.53 412.06L1131.53 404.74C1131.53 400.322 1135.11 396.74 1139.53 396.74H1199.43C1203.85 396.74 1207.43 393.158 1207.43 388.74V375.284C1207.43 370.865 1211.01 367.284 1215.43 367.284H1253.41C1257.83 367.284 1261.41 363.702 1261.41 359.284V352.578C1261.41 348.16 1257.83 344.578 1253.41 344.578H1238.74C1234.32 344.578 1230.74 340.996 1230.74 336.578V328.644C1230.74 324.226 1227.16 320.644 1222.74 320.644H1194.57C1190.15 320.644 1186.57 317.063 1186.57 312.644V305.325C1186.57 300.907 1190.15 297.325 1194.57 297.325H1271.81C1276.23 297.325 1279.81 293.743 1279.81 289.325V277.096C1279.81 272.677 1283.39 269.096 1287.81 269.096H1408.06C1412.48 269.096 1416.06 265.514 1416.06 261.096V250.708C1416.06 246.289 1412.48 242.708 1408.06 242.708H1370.08C1365.66 242.708 1362.08 239.126 1362.08 234.708V226.161C1362.08 221.742 1358.5 218.161 1354.08 218.161H1313C1308.58 218.161 1305 214.579 1305 210.161V201C1305 196.582 1308.58 193 1313 193Z" fill="#53BF8D"/>
</g>
<defs>
<filter id="filter0_i_1621_1386" x="-7" y="-4" width="1452" height="644" filterUnits="userSpaceOnUse" color-interpolation-filters="sRGB">
<feFlood flood-opacity="0" result="BackgroundImageFix"/>
<feBlend mode="normal" in="SourceGraphic" in2="BackgroundImageFix" result="shape"/>
<feColorMatrix in="SourceAlpha" type="matrix" values="0 0 0 0 0 0 0 0 0 0 0 0 0 0 0 0 0 0 127 0" result="hardAlpha"/>
<feOffset dx="-4" dy="-4"/>
<feGaussianBlur stdDeviation="2"/>
<feComposite in2="hardAlpha" operator="arithmetic" k2="-1" k3="1"/>
<feColorMatrix type="matrix" values="0 0 0 0 1 0 0 0 0 1 0 0 0 0 1 0 0 0 0.95 0"/>
<feBlend mode="normal" in2="shape" result="effect1_innerShadow_1621_1386"/>
</filter>
</defs>
</svg>
