<svg width="383" height="393" viewBox="0 0 383 393" fill="none" xmlns="http://www.w3.org/2000/svg">
<path fill-rule="evenodd" clip-rule="evenodd" d="M0.184949 50.0692C0.184949 46.1564 0.208175 42.24 0.23141 38.3222C0.285653 29.176 0.339942 20.022 0.0988623 10.8873C-0.116354 3.93127 2.29407 0.747988 10.4723 0.826587C34.4043 1.10169 58.4225 1.06239 82.3976 0.826587C89.9301 0.747988 92.6419 3.53827 92.2975 10.2192C92.0946 14.1511 92.1515 18.0829 92.2084 22.0148C92.2601 25.5892 92.3119 29.1636 92.1684 32.738C91.8671 39.5369 95.2675 42.2093 102.413 42.0914C113.13 41.9342 123.891 41.8163 134.609 42.1307C142.271 42.3665 144.681 39.1439 144.38 32.6201C144.168 28.0011 144.217 23.3821 144.266 18.7631V18.7624C144.296 15.8754 144.327 12.9884 144.294 10.1013C144.251 3.61687 147.307 0.747988 154.71 0.826587C179.03 1.06239 203.392 1.06239 227.712 0.826587C234.685 0.747988 237.439 3.49897 237.396 9.55114C237.356 13.3648 237.382 17.17 237.407 20.9746V20.9786V20.9793C237.436 25.3279 237.465 29.6758 237.396 34.0349C237.31 39.3797 240.151 41.8949 245.79 41.9342C257.584 42.0128 269.421 42.0128 281.214 41.9735C287.499 41.9735 290.081 39.1046 289.823 33.3275C289.662 29.1564 289.698 24.9741 289.733 20.7926C289.764 17.1339 289.794 13.4758 289.694 9.82624C289.522 3.81337 291.889 0.787288 298.991 0.826587C323.698 0.983787 348.362 0.944487 373.069 0.826587C379.396 0.826587 382.108 3.18457 382.108 9.00094C381.979 36.4322 381.936 63.8634 382.151 91.2947C382.151 95.9714 379.956 98.2901 375.78 100.373C316.596 130.162 257.411 159.991 198.356 190.016C193.019 192.727 188.973 192.649 183.635 189.898C125.269 160.266 66.7298 130.712 8.06187 101.395C2.29407 98.4866 -0.202441 95.3426 0.0127757 89.2511C0.346013 80.0681 0.274143 70.8656 0.202334 61.6711C0.172114 57.8017 0.141906 53.9337 0.141906 50.0692H0.184949ZM175.336 392.097L175.303 392.079C175.423 390.924 175.538 389.978 175.635 389.169L175.635 389.168C175.815 387.683 175.939 386.659 175.939 385.652C175.951 370.272 175.949 354.896 175.948 339.521V339.477V339.476C175.943 301.002 175.939 262.537 176.154 224.051C176.197 217.92 172.883 215.601 167.933 213.086C141.461 199.783 115.021 186.441 88.5819 173.098C62.1428 159.756 35.7037 146.414 9.2323 133.111C8.69942 132.843 8.1685 132.501 7.62447 132.151C5.61977 130.86 3.43706 129.454 0.322341 131.185C0.322341 141.801 0.324062 152.42 0.325784 163.042V163.042C0.332671 205.544 0.339566 248.092 0.236255 290.664C0.236255 298.681 5.01406 303.004 12.0301 306.62C31.6631 316.767 51.2311 327.053 70.7956 337.337C78.8114 341.551 86.8266 345.764 94.8454 349.967C121.134 363.717 147.423 377.466 175.303 392.079L175.293 392.175L175.336 392.097ZM206.238 282.728C206.226 289.695 206.214 296.662 206.214 303.633V381.957C206.214 392.45 206.343 392.568 216.071 387.459C237.224 376.391 258.356 365.296 279.488 354.202C310.125 338.116 340.761 322.032 371.457 306.03C379.205 302.021 382.304 296.677 382.304 288.581C382.089 238.317 382.089 188.013 382.304 137.748C382.304 131.028 381.443 128.749 373.738 132.679C320.321 159.835 266.776 186.834 213.144 213.636C207.591 216.427 206.042 219.767 206.085 225.269C206.306 244.433 206.272 263.576 206.238 282.728Z" fill="#ECFFFC"/>
</svg>
