<svg width="auto" height="auto" viewBox="auto" fill="none" xmlns="http://www.w3.org/2000/svg">
<g filter="url(#filter0_i_491_5407)">
<path d="M0 32C0 14.3269 14.3269 0 32 0H610C627.673 0 642 14.3269 642 32V229.5V312.25C642 329.923 627.673 344.25 610 344.25H373C355.327 344.25 341 358.577 341 376.25V396.625V417C341 434.673 326.673 449 309 449H32C14.3269 449 0 434.673 0 417V32Z" fill="white"/>
</g>
<path d="M32 0.5H610C627.397 0.5 641.5 14.603 641.5 32V229.5V312.25C641.5 329.647 627.397 343.75 610 343.75H373C355.051 343.75 340.5 358.301 340.5 376.25V396.625V417C340.5 434.397 326.397 448.5 309 448.5H32C14.603 448.5 0.5 434.397 0.5 417V32C0.5 14.603 14.603 0.5 32 0.5Z" stroke="#9DEEE1"/>
<path d="M1 415C1 432.673 15.3269 447 33 447L250 447C254.418 447 258 443.418 258 439V415C258 410.582 254.418 407 250 407H109.5C105.082 407 101.5 403.418 101.5 399V375C101.5 370.582 105.082 367 109.5 367H208.5C212.918 367 216.5 363.418 216.5 359V335C216.5 330.582 212.918 327 208.5 327H59C54.5817 327 51 323.418 51 319V295C51 290.582 54.5817 287 59 287H152C156.418 287 160 283.418 160 279V255C160 250.582 156.418 247 152 247H89C84.5817 247 81 243.418 81 239V215C81 210.582 84.5817 207 89 207H112C116.418 207 120 203.418 120 199V175C120 170.582 116.418 167 112 167H1V415Z" fill="#ECFFFC"/>
<defs>
<filter id="filter0_i_491_5407" x="-4" y="-4" width="646" height="453" filterUnits="userSpaceOnUse" color-interpolation-filters="sRGB">
<feFlood flood-opacity="0" result="BackgroundImageFix"/>
<feBlend mode="normal" in="SourceGraphic" in2="BackgroundImageFix" result="shape"/>
<feColorMatrix in="SourceAlpha" type="matrix" values="0 0 0 0 0 0 0 0 0 0 0 0 0 0 0 0 0 0 127 0" result="hardAlpha"/>
<feOffset dx="-4" dy="-4"/>
<feGaussianBlur stdDeviation="2"/>
<feComposite in2="hardAlpha" operator="arithmetic" k2="-1" k3="1"/>
<feColorMatrix type="matrix" values="0 0 0 0 1 0 0 0 0 1 0 0 0 0 1 0 0 0 0.95 0"/>
<feBlend mode="normal" in2="shape" result="effect1_innerShadow_491_5407"/>
</filter>
</defs>
</svg>
