<svg width="351" height="232" viewBox="0 0 351 232" fill="none" xmlns="http://www.w3.org/2000/svg">
<g filter="url(#filter0_i_497_6649)">
<path d="M0.0692629 16.069C0.0310585 7.20557 7.20561 0 16.0691 0L334.089 0C342.891 0 350.04 7.10893 350.089 15.9104L350.91 162.41C350.96 171.282 343.782 178.5 334.91 178.5H199C190.163 178.5 183 185.663 183 194.5V216C183 224.837 175.837 232 167 232H16.9312C8.12154 232 0.969304 224.879 0.931332 216.069L0.0692629 16.069Z" fill="white"/>
</g>
<path d="M0.569258 16.0668C0.532248 7.48039 7.4826 0.5 16.0691 0.5H334.089C342.616 0.5 349.541 7.38678 349.589 15.9132L350.41 162.413C350.458 171.007 343.504 178 334.91 178H199C189.887 178 182.5 185.387 182.5 194.5V216C182.5 224.56 175.56 231.5 167 231.5H16.9312C8.39684 231.5 1.46811 224.601 1.43133 216.067L0.569258 16.0668Z" stroke="#9DEEE1"/>
<defs>
<filter id="filter0_i_497_6649" x="-3.93164" y="-4" width="354.842" height="236" filterUnits="userSpaceOnUse" color-interpolation-filters="sRGB">
<feFlood flood-opacity="0" result="BackgroundImageFix"/>
<feBlend mode="normal" in="SourceGraphic" in2="BackgroundImageFix" result="shape"/>
<feColorMatrix in="SourceAlpha" type="matrix" values="0 0 0 0 0 0 0 0 0 0 0 0 0 0 0 0 0 0 127 0" result="hardAlpha"/>
<feOffset dx="-4" dy="-4"/>
<feGaussianBlur stdDeviation="2"/>
<feComposite in2="hardAlpha" operator="arithmetic" k2="-1" k3="1"/>
<feColorMatrix type="matrix" values="0 0 0 0 1 0 0 0 0 1 0 0 0 0 1 0 0 0 0.95 0"/>
<feBlend mode="normal" in2="shape" result="effect1_innerShadow_497_6649"/>
</filter>
</defs>
</svg>
