<svg width="1440" height="650" viewBox="0 0 1440 650" fill="none" xmlns="http://www.w3.org/2000/svg">
<g clip-path="url(#clip0_491_5552)">
<g filter="url(#filter0_i_491_5552)">
<path d="M-3 0H178H721H1264H1445V650H-3V0Z" fill="#ECFFFC"/>
</g>
<path d="M-2.5 0.5H178H721H1264H1444.5V649.5H-2.5V0.5Z" stroke="#9DEEE1"/>
<g style="mix-blend-mode:color-burn">
<path d="M1264.65 -41.3153V-153.195V-163.306C1264.65 -167.724 1261.07 -171.306 1256.65 -171.306H1252.84C1248.42 -171.306 1244.84 -174.888 1244.84 -179.306V-209.015C1244.84 -213.434 1241.26 -217.015 1236.84 -217.015H1202.02C1197.6 -217.015 1194.02 -220.597 1194.02 -225.015V-253C1194.02 -257.418 1197.6 -261 1202.02 -261H1304.03C1308.44 -261 1312.03 -257.418 1312.03 -253V-161.195C1312.03 -156.776 1315.61 -153.195 1320.03 -153.195H1340.2C1344.62 -153.195 1348.2 -156.776 1348.2 -161.195V-176.243C1348.2 -180.661 1351.78 -184.243 1356.2 -184.243H1413.42C1417.84 -184.243 1421.42 -187.824 1421.42 -192.243V-234.889C1421.42 -239.307 1425 -242.889 1429.42 -242.889H1462.52C1466.94 -242.889 1470.52 -239.307 1470.52 -234.889V-139.634C1470.52 -135.215 1466.94 -131.634 1462.52 -131.634H1429.42C1425 -131.634 1421.42 -128.052 1421.42 -123.634V-112.036C1421.42 -107.617 1425 -104.036 1429.42 -104.036H1509.89C1514.31 -104.036 1517.89 -100.454 1517.89 -96.0355V-75.813C1517.89 -71.3947 1514.31 -67.813 1509.89 -67.813H1462.15C1457.73 -67.813 1454.15 -64.2313 1454.15 -59.813V-30.1036C1454.15 -25.6853 1457.73 -22.1036 1462.15 -22.1036H1631.35C1635.77 -22.1036 1639.35 -18.5218 1639.35 -14.1036V66.49C1639.35 70.9082 1635.77 74.4899 1631.35 74.4899H1576.71C1572.3 74.4899 1568.71 78.0717 1568.71 82.49V130.311C1568.71 134.729 1572.3 138.311 1576.71 138.311H1677C1681.42 138.311 1685 141.892 1685 146.311V173.433C1685 177.851 1681.42 181.433 1677 181.433H1553.46C1549.04 181.433 1545.46 185.014 1545.46 189.433V245.015C1545.46 249.434 1541.88 253.015 1537.46 253.015H1494.88C1490.47 253.015 1486.88 249.434 1486.88 245.015V222.206C1486.88 217.787 1483.3 214.206 1478.88 214.206H1462.15C1457.73 214.206 1454.15 217.787 1454.15 222.206V289C1454.15 293.418 1450.57 297 1446.15 297H1272.65C1268.23 297 1264.65 293.418 1264.65 289V164.422C1264.65 160.004 1261.07 156.422 1256.65 156.422H1218.38C1213.97 156.422 1210.38 160.004 1210.38 164.422V194.131C1210.38 198.55 1206.8 202.131 1202.38 202.131H1171.01C1166.59 202.131 1163.01 198.55 1163.01 194.131V118.713C1163.01 114.294 1159.43 110.713 1155.01 110.713H1096.07C1091.65 110.713 1088.07 107.131 1088.07 102.712V82.4899C1088.07 78.0717 1091.65 74.4899 1096.07 74.4899H1132.61C1137.03 74.4899 1140.61 70.9082 1140.61 66.4899V40.2303C1140.61 35.812 1137.03 32.2303 1132.61 32.2303H1053C1048.58 32.2303 1045 28.6486 1045 24.2303V-25.3153C1045 -29.7336 1048.58 -33.3153 1053 -33.3153H1256.65C1261.07 -33.3153 1264.65 -36.897 1264.65 -41.3153Z" fill="#53BF8D"/>
</g>
<g style="mix-blend-mode:color-burn">
<path d="M-120.35 345.685V233.805V223.694C-120.35 219.276 -123.932 215.694 -128.35 215.694H-132.161C-136.58 215.694 -140.161 212.112 -140.161 207.694V177.985C-140.161 173.566 -143.743 169.985 -148.161 169.985H-182.982C-187.401 169.985 -190.982 166.403 -190.982 161.985V134C-190.982 129.582 -187.401 126 -182.982 126H-80.9744C-76.5562 126 -72.9744 129.582 -72.9744 134V225.805C-72.9744 230.224 -69.3927 233.805 -64.9744 233.805H-44.7968C-40.3785 233.805 -36.7968 230.224 -36.7968 225.805V210.757C-36.7968 206.339 -33.2151 202.757 -28.7968 202.757H28.4199C32.8382 202.757 36.4199 199.176 36.4199 194.757V152.111C36.4199 147.693 40.0016 144.111 44.4199 144.111H77.5182C81.9365 144.111 85.5182 147.693 85.5182 152.111V247.366C85.5182 251.785 81.9365 255.366 77.5182 255.366H44.4199C40.0016 255.366 36.4199 258.948 36.4199 263.366V274.964C36.4199 279.383 40.0016 282.964 44.4199 282.964H124.894C129.312 282.964 132.894 286.546 132.894 290.964V311.187C132.894 315.605 129.312 319.187 124.894 319.187H77.1521C72.7338 319.187 69.1521 322.769 69.1521 327.187V356.896C69.1521 361.315 72.7338 364.896 77.1521 364.896H246.347C250.766 364.896 254.347 368.478 254.347 372.896V453.49C254.347 457.908 250.766 461.49 246.347 461.49H191.715C187.296 461.49 183.715 465.072 183.715 469.49V517.311C183.715 521.729 187.296 525.311 191.715 525.311H292C296.418 525.311 300 528.892 300 533.311V560.433C300 564.851 296.418 568.433 292 568.433H168.458C164.039 568.433 160.458 572.014 160.458 576.433V632.015C160.458 636.434 156.876 640.015 152.458 640.015H109.884C105.466 640.015 101.884 636.434 101.884 632.015V609.206C101.884 604.787 98.3026 601.206 93.8843 601.206H77.1521C72.7338 601.206 69.1521 604.787 69.1521 609.206V676C69.1521 680.418 65.5704 684 61.1521 684H-112.35C-116.768 684 -120.35 680.418 -120.35 676V551.422C-120.35 547.004 -123.932 543.422 -128.35 543.422H-166.616C-171.035 543.422 -174.616 547.004 -174.616 551.422V581.131C-174.616 585.55 -178.198 589.131 -182.616 589.131H-213.992C-218.41 589.131 -221.992 585.55 -221.992 581.131V505.713C-221.992 501.294 -225.574 497.713 -229.992 497.713H-288.931C-293.35 497.713 -296.931 494.131 -296.931 489.712V469.49C-296.931 465.072 -293.35 461.49 -288.931 461.49H-252.388C-247.969 461.49 -244.388 457.908 -244.388 453.49V427.23C-244.388 422.812 -247.969 419.23 -252.388 419.23H-332C-336.418 419.23 -340 415.649 -340 411.23V361.685C-340 357.266 -336.418 353.685 -332 353.685H-128.35C-123.932 353.685 -120.35 350.103 -120.35 345.685Z" fill="#53BF8D"/>
</g>
<g style="mix-blend-mode:soft-light">
<path d="M1033 616.971L1033 499.09L1033 495C1033 490.582 1029.42 487 1025 487L842 487C837.582 487 834 490.582 834 495L834 664.726C834 671.848 842.606 675.419 847.649 670.391L855.186 662.875C856.692 661.374 857.538 659.336 857.538 657.21L857.538 590.3C857.538 585.881 861.119 582.3 865.538 582.3L872.362 582.3C876.78 582.3 880.362 585.881 880.362 590.3L880.362 629.061C880.362 633.48 883.944 637.061 888.362 637.061L894.473 637.061C898.891 637.061 902.473 633.48 902.473 629.061L902.473 593.856C902.473 589.437 906.055 585.856 910.473 585.856L919.437 585.856C923.856 585.856 927.437 589.437 927.437 593.856L927.437 668.888C927.437 673.306 931.019 676.888 935.437 676.888L955.1 676.888C959.519 676.888 963.1 673.306 963.1 668.888L963.1 632.971C963.1 628.553 966.682 624.971 971.1 624.971L1025 624.971C1029.42 624.971 1033 621.389 1033 616.971Z" fill="#58445E"/>
</g>
</g>
<defs>
<filter id="filter0_i_491_5552" x="-7" y="-4" width="1452" height="654" filterUnits="userSpaceOnUse" color-interpolation-filters="sRGB">
<feFlood flood-opacity="0" result="BackgroundImageFix"/>
<feBlend mode="normal" in="SourceGraphic" in2="BackgroundImageFix" result="shape"/>
<feColorMatrix in="SourceAlpha" type="matrix" values="0 0 0 0 0 0 0 0 0 0 0 0 0 0 0 0 0 0 127 0" result="hardAlpha"/>
<feOffset dx="-4" dy="-4"/>
<feGaussianBlur stdDeviation="2"/>
<feComposite in2="hardAlpha" operator="arithmetic" k2="-1" k3="1"/>
<feColorMatrix type="matrix" values="0 0 0 0 1 0 0 0 0 1 0 0 0 0 1 0 0 0 0.95 0"/>
<feBlend mode="normal" in2="shape" result="effect1_innerShadow_491_5552"/>
</filter>
<clipPath id="clip0_491_5552">
<rect width="1440" height="650" fill="white"/>
</clipPath>
</defs>
</svg>
