<svg width="640" height="558" viewBox="0 0 640 558" fill="none" xmlns="http://www.w3.org/2000/svg">
<g style="mix-blend-mode:color-burn">
<path d="M219.65 219.685V107.805V97.694C219.65 93.2757 216.068 89.694 211.65 89.694H207.839C203.42 89.694 199.839 86.1123 199.839 81.694V51.9845C199.839 47.5663 196.257 43.9845 191.839 43.9845H157.018C152.599 43.9845 149.018 40.4028 149.018 35.9845V8C149.018 3.58172 152.599 0 157.018 0H259.026C263.444 0 267.026 3.58173 267.026 8.00001V99.8053C267.026 104.224 270.607 107.805 275.026 107.805H295.203C299.622 107.805 303.203 104.224 303.203 99.8053V84.7573C303.203 80.3391 306.785 76.7573 311.203 76.7573H368.42C372.838 76.7573 376.42 73.1756 376.42 68.7573V26.1113C376.42 21.693 380.002 18.1113 384.42 18.1113H417.518C421.936 18.1113 425.518 21.693 425.518 26.1113V121.366C425.518 125.785 421.936 129.366 417.518 129.366H384.42C380.002 129.366 376.42 132.948 376.42 137.366V148.964C376.42 153.383 380.002 156.964 384.42 156.964H464.894C469.312 156.964 472.894 160.546 472.894 164.964V185.187C472.894 189.605 469.312 193.187 464.894 193.187H417.152C412.734 193.187 409.152 196.769 409.152 201.187V230.896C409.152 235.315 412.734 238.896 417.152 238.896H586.347C590.766 238.896 594.347 242.478 594.347 246.896V327.49C594.347 331.908 590.766 335.49 586.347 335.49H531.715C527.296 335.49 523.715 339.072 523.715 343.49V391.311C523.715 395.729 527.296 399.311 531.715 399.311H632C636.418 399.311 640 402.892 640 407.311V434.433C640 438.851 636.418 442.433 632 442.433H508.458C504.039 442.433 500.458 446.014 500.458 450.433V506.015C500.458 510.434 496.876 514.015 492.458 514.015H449.884C445.466 514.015 441.884 510.434 441.884 506.015V483.206C441.884 478.787 438.303 475.206 433.884 475.206H417.152C412.734 475.206 409.152 478.787 409.152 483.206V550C409.152 554.418 405.57 558 401.152 558H227.65C223.232 558 219.65 554.418 219.65 550V425.422C219.65 421.004 216.068 417.422 211.65 417.422H173.384C168.965 417.422 165.384 421.004 165.384 425.422V455.131C165.384 459.55 161.802 463.131 157.384 463.131H126.008C121.59 463.131 118.008 459.55 118.008 455.131V379.713C118.008 375.294 114.426 371.713 110.008 371.713H51.0686C46.6504 371.713 43.0686 368.131 43.0686 363.712V343.49C43.0686 339.072 46.6504 335.49 51.0686 335.49H87.6124C92.0307 335.49 95.6124 331.908 95.6124 327.49V301.23C95.6124 296.812 92.0307 293.23 87.6124 293.23H8C3.58172 293.23 0 289.649 0 285.23V235.685C0 231.266 3.58173 227.685 8.00001 227.685H211.65C216.068 227.685 219.65 224.103 219.65 219.685Z" fill="#C5FFFA"/>
</g>
</svg>
