<svg width="124" height="144" viewBox="0 0 124 144" fill="none" xmlns="http://www.w3.org/2000/svg">
<path d="M36.863 75.526C34.8312 74.3741 32.7675 73.2543 30.7518 72.0704C29.9199 71.5905 29.168 70.9986 28.3841 70.4227C27.0083 69.3988 26.3844 67.975 26.2404 66.3112C26.2084 65.8793 26.2084 65.4633 26.2084 65.0314C26.2084 53.8969 26.2084 42.7463 26.2244 31.6118C26.2244 31.0359 26.1124 30.428 26.5764 29.948C27.1523 29.5961 27.6962 29.7401 28.2241 30.06C28.944 30.508 29.6799 30.9399 30.4158 31.3718C30.6718 31.5158 30.9758 31.6278 31.3277 31.7878C31.3917 31.4838 31.4557 31.2758 31.4557 31.0839C31.4557 29.2281 31.4557 27.3564 31.4557 25.4206C30.7358 25.0367 30.0639 24.6207 29.328 24.3168C27.1203 23.4049 26.2404 21.7411 26.2724 19.4054C26.3204 14.718 26.2884 10.0307 26.2884 5.32729C26.2884 4.36742 26.2564 3.40755 26.3044 2.44768C26.3684 0.991868 26.9923 0.30396 28.4001 0.0959873C28.7201 0.0479936 29.04 0.0479936 29.36 0.0479936C33.8394 0.0479936 38.3188 0.0479936 42.7982 0.0639915C43.0702 0.0639915 43.3261 0.0479936 43.5981 0.0799894C45.1179 0.22397 45.7898 0.943875 45.8218 2.44768C45.8378 3.83949 45.8218 5.21531 45.8218 6.60712C45.8218 7.40702 45.8218 8.19091 45.8218 8.83083C46.2697 9.48674 46.7817 9.58273 47.3416 9.58273C49.7893 9.58273 52.2529 9.59873 54.7006 9.56673C55.2125 9.56673 55.7245 9.37476 56.0764 9.31077C56.6524 8.83083 56.6203 8.33489 56.6203 7.85496C56.6203 6.25517 56.6203 4.65538 56.6203 3.05559C56.6203 2.47967 56.6203 1.88775 56.6203 1.5358C57.0683 0.463938 57.7562 0.127983 58.6041 0.0639915C59.132 0.0159979 59.676 0 60.2039 0C64.3633 0 68.5228 0 72.6822 0C73.2102 0 73.7541 0.0319958 74.282 0.0639915C75.0659 0.111985 75.7218 0.415945 76.2338 1.32782C76.2498 1.98374 76.2818 2.83162 76.2818 3.67951C76.2978 5.07133 76.2657 6.44714 76.2977 7.83896C76.2977 8.2549 76.3937 8.65485 76.4257 8.97481C77.1296 9.53474 77.8015 9.59873 78.5054 9.59873C80.7931 9.59873 83.0968 9.59873 85.3845 9.59873C85.9285 9.59873 86.4564 9.58273 86.9683 9.0388C87.0003 8.75084 87.0643 8.33489 87.0643 7.91895C87.0803 6.20718 87.0643 4.5114 87.0643 2.79963C87.0643 0.863885 87.8162 0.111985 89.768 0.0799894C90.5199 0.0639915 91.2558 0.0799894 92.0077 0.0799894C95.7992 0.0799894 99.5747 0.0639915 103.366 0.0799894C103.942 0.0799894 104.534 0.159979 105.094 0.287962C105.974 0.479936 106.438 1.11985 106.566 1.98374C106.63 2.39968 106.63 2.83162 106.63 3.26357C106.63 8.65485 106.63 14.0301 106.63 19.4214C106.63 19.6294 106.614 19.8534 106.614 20.0613C106.598 21.9651 105.702 23.2929 104.022 24.1408C103.35 24.4768 102.694 24.7967 101.926 25.1647C101.958 26.2365 102.022 27.2764 102.038 28.3322C102.054 29.3401 102.038 30.348 102.038 31.4358C103.11 31.2279 103.782 30.5879 104.566 30.188C105.35 29.7721 105.334 29.7721 106.422 30.028C106.502 30.332 106.662 30.6839 106.694 31.0359C106.758 31.8838 106.79 32.7317 106.79 33.5955C106.79 43.7222 106.806 53.8489 106.79 63.9915C106.79 64.9994 106.742 66.0232 106.566 67.0151C106.342 68.3589 105.75 69.5108 104.646 70.4067C103.062 71.6865 101.27 72.6304 99.5267 73.6542C98.6948 74.1342 97.8789 74.6141 96.983 75.126C97.287 75.9099 98.0709 76.1339 98.5508 76.6778C99.2387 76.5178 99.8786 76.3739 100.423 76.2459C101.974 77.2538 111.829 86.5325 112.661 87.7004C112.853 88.5483 112.405 89.1082 111.781 89.5881C111.029 90.164 110.277 90.756 109.525 91.3319C109.685 91.6199 109.749 91.8278 109.877 91.9878C110.197 92.4037 110.549 92.8037 110.917 93.2516C111.397 93.2196 111.861 93.1556 112.341 93.1716C113.349 93.2196 114.373 93.2036 115.349 93.3956C117.62 93.8756 118.724 95.2514 118.772 97.5551C118.804 99.1069 118.548 100.627 118.18 102.13C118.132 102.338 118.084 102.546 117.988 102.866C119.156 104.962 119.604 107.378 120.02 109.745C120.452 110.001 120.82 110.193 121.188 110.417C123.507 111.777 123.379 114.993 122.1 116.433C121.3 117.328 120.308 117.76 119.14 117.824C118.404 117.872 117.652 117.808 116.9 117.76C116.18 117.712 115.525 117.84 114.901 118.464C114.821 119.104 114.661 119.824 114.629 120.576C114.485 122.976 114.373 125.359 114.293 127.759C114.245 129.183 113.909 130.495 113.253 131.743C111.205 135.614 108.741 139.214 106.022 142.653C105.574 143.213 105.014 143.581 104.406 143.917C103.782 143.773 103.238 143.533 102.87 142.989C102.038 139.581 101.206 136.174 100.375 132.75C100.199 132.03 100.055 131.295 99.8946 130.575C99.4787 128.719 99.4307 126.879 100.119 125.071C100.183 124.879 100.167 124.671 100.183 124.527C100.103 124.415 100.087 124.352 100.055 124.336C100.007 124.32 99.9426 124.32 99.8946 124.336C97.9749 125.103 96.0711 125.887 94.1034 126.671C94.0714 128.143 95.6872 133.534 94.9833 135.022C93.9914 135.086 93.0635 135.134 92.0077 135.214C91.8317 137.646 92.0557 140.045 91.8797 142.301C91.3838 143.053 90.7438 143.037 90.0879 143.037C87.8482 143.037 85.6085 143.037 83.3688 143.037C81.2411 143.037 79.0974 143.037 76.9697 143.037C76.2658 143.037 75.5778 142.989 74.9379 142.269C74.7299 139.981 75.0659 137.566 75.1299 135.198C74.282 134.526 73.1622 135.214 72.4263 134.206C71.9303 133.006 72.9222 131.647 72.5223 130.207H62.8755C62.4596 131.599 63.2435 132.83 62.9875 134.03C62.3956 135.182 61.2597 134.686 60.2999 134.942C60.2519 135.246 60.1399 135.534 60.1559 135.838C60.2199 137.438 60.2999 139.022 60.3959 140.621C60.4279 141.309 60.5238 142.013 59.9639 142.589C59.5 142.973 58.9241 143.021 58.3321 143.021C53.9007 143.021 49.4853 143.021 45.0539 143.005C44.59 143.005 44.126 142.877 43.87 142.829C43.1821 142.237 43.2301 141.629 43.2301 141.053C43.2301 139.565 43.2301 138.062 43.2301 136.574C43.2301 136.158 43.1981 135.742 43.1821 135.342C42.2383 134.798 41.0704 135.55 40.1425 134.574C40.1425 132.062 41.0864 129.583 41.3264 126.911C37.8069 125.519 34.1273 124.432 31.1197 122.192C30.8798 121.36 31.3597 120.944 31.6957 120.48C33.5354 117.936 35.3752 115.393 37.2309 112.849C37.9188 111.905 38.6067 110.945 39.3426 109.905V102.53C39.0547 102.274 38.7028 101.97 38.3348 101.635C37.2949 102.162 36.703 103.074 35.9511 103.794C35.7271 105.538 35.5352 107.282 35.2792 109.026C34.5753 113.761 32.6555 117.984 29.7599 121.792C28.0961 123.968 26.1764 125.855 23.9687 127.487C23.0408 128.175 22.1609 128.255 21.1211 127.967C18.1295 127.103 15.3618 125.759 12.8022 123.984C7.63486 120.416 4.09931 115.601 1.98759 109.713C1.53965 108.466 1.12371 107.202 0.755762 105.922C0.499796 104.978 0.0838592 102.85 0.00386976 101.539C-0.028126 100.931 0.147866 100.563 0.179862 100.451C0.627803 100.099 1.01175 100.067 1.45969 100.195C5.44316 101.299 8.64272 99.7468 11.5223 97.1871C12.9781 95.8913 14.05 94.3235 14.7379 92.4837C14.7699 92.3877 15.2179 91.1719 15.7618 90.772C16.2577 90.404 19.8892 94.2115 22.1449 95.0754C23.1368 94.0195 24.1127 92.9957 25.1366 91.9078C24.0647 90.628 22.5609 90.0361 21.505 88.7722C21.473 88.4203 21.441 88.0043 21.425 87.7484C21.681 87.0125 32.4796 76.9658 33.7594 76.2139C34.3833 76.4219 35.1352 76.6618 35.8711 76.9018C36.0791 77.1098 36.2871 77.3177 36.559 77.6057C36.943 77.1738 37.2469 76.8378 37.6309 76.4059C37.3429 76.0219 37.1029 75.766 36.863 75.526ZM94.3753 109.425C95.3352 109.873 95.9111 110.625 96.4711 111.409C98.1348 113.761 99.8306 116.065 101.526 118.384C101.702 118.608 101.926 118.8 102.246 119.104C102.598 117.712 103.382 116.657 103.478 115.281C103.094 115.137 102.774 114.977 102.422 114.865C101.702 114.657 100.966 114.513 100.279 114.273C98.8228 113.777 98.1508 112.913 98.2628 111.409C98.3428 110.305 98.5988 109.202 98.9188 108.146C99.0627 107.682 99.4947 107.282 99.8786 106.93C100.135 106.69 100.487 106.562 100.854 106.37C99.5586 104.466 98.0869 102.802 96.4711 101.107C95.7512 101.635 95.0793 102.13 94.4074 102.626V109.425H94.3753Z" fill="#594660"/>
<path d="M21.7768 126.079C19.4571 125.439 15.7936 124.079 12.1781 121.12C11.2182 120.336 8.40257 117.904 6.09888 113.921C4.48309 111.105 3.6512 108.449 3.09127 106.658C2.59534 105.074 2.27536 103.73 2.06738 102.738C2.53132 102.754 3.21924 102.77 4.03513 102.69C4.53106 102.642 5.31496 102.53 6.91475 102.082C8.37055 101.666 9.10646 101.474 9.87435 101.122C12.53 99.9225 14.0498 97.7948 15.0737 96.403C15.8416 95.3471 16.3535 94.4192 16.6735 93.7793C17.1374 94.3072 17.8253 95.0111 18.7532 95.699C21.2968 97.6028 23.8885 98.1467 25.1203 98.3227C28.8638 98.8666 31.8075 97.7308 33.0073 97.1868C33.1353 97.3468 33.7432 102.994 33.6312 105.698C33.5192 108.129 33.1353 110.529 32.2394 112.833C31.5675 114.545 31.0556 115.792 30.9276 116.064C30.7036 116.528 29.5677 118.768 27.392 121.296C26.6401 122.16 25.5203 123.471 23.7125 124.815C22.9446 125.359 22.2727 125.791 21.7768 126.079ZM6.25886 104.162C6.25886 104.162 5.21898 104.386 5.20298 104.402C4.94702 104.45 4.81905 104.482 4.81905 104.482C4.81905 104.482 5.74692 108.145 6.45082 110.065C7.04275 111.649 7.76263 113.425 9.18644 115.488C9.76236 116.32 11.3942 118.56 14.2418 120.64C16.9774 122.639 19.6331 123.647 21.4408 124.159C23.3126 122.815 27.488 119.44 29.7597 113.601C31.8075 108.337 31.3755 103.49 31.1995 101.762C31.1515 101.234 31.0875 100.786 31.0396 100.482C28.8318 100.962 28.7999 100.962 28.7999 100.962C27.536 101.138 25.2003 101.298 22.5607 100.482C22.5607 100.482 20.353 99.8105 18.4012 98.4027C17.9693 98.0987 17.6013 97.7628 17.6013 97.7628C17.4734 97.6508 17.3614 97.5388 17.2334 97.4108C17.1374 97.3148 17.0414 97.2188 16.9614 97.1229C16.8814 97.3148 16.7854 97.5388 16.6415 97.7628C16.4335 98.1147 16.1935 98.3707 16.0015 98.5627C14.9457 99.8265 12.978 101.922 10.5623 102.882C9.34643 103.362 6.77079 104.05 6.25886 104.162Z" fill="#7C9C96"/>
<path d="M115.956 103.425C117.044 105.329 117.348 106.688 117.588 107.52C117.716 107.952 117.716 108.432 117.812 109.04C116.564 108.8 103.765 106.592 103.477 106.464C103.014 105.761 102.55 105.041 102.086 104.305C101.75 103.777 101.414 103.249 101.094 102.721C102.758 101.009 104.405 99.2814 106.117 97.6176C106.469 97.2656 107.045 97.1537 107.509 96.9297C109.957 97.1857 111.556 98.1455 112.324 98.7054C113.956 99.8893 114.74 101.265 115.956 103.425Z" fill="#6F7C80"/>
<path d="M32.0789 80.1477C32.7828 79.4598 33.5027 78.7719 34.2066 78.084C34.9585 78.4679 35.7264 78.8679 36.5103 79.2838C37.5661 79.8597 38.574 80.4357 39.5179 80.9956C39.4059 84.2432 39.2939 87.5067 39.1659 90.7863C39.0539 93.5539 38.942 96.2896 38.814 99.0252C37.7101 98.3053 36.5743 97.5694 35.4384 96.7855C33.8386 95.6976 32.3028 94.6098 30.831 93.5219C30.703 92.1781 30.6551 91.0423 30.6551 90.2584C30.6391 88.6746 30.623 85.9869 31.3589 82.7074C31.6309 81.6195 31.8869 80.7236 32.0789 80.1477Z" fill="#6F7C80"/>
<path d="M110.725 113.92C111.317 113.968 111.749 114.128 112.005 114.24C112.005 114.24 112.596 114.512 112.804 114.88C112.836 114.944 112.868 115.008 112.868 115.008C112.9 115.12 112.916 115.248 112.884 115.472C112.82 116.016 112.324 123.823 112.245 126.686C112.181 128.526 111.813 130.238 110.789 131.806C110.693 131.95 110.405 132.413 109.829 133.309C108.565 135.261 107.925 136.269 107.061 137.421C106.597 138.045 105.893 138.941 104.981 139.98C105.221 139.565 105.573 138.941 105.877 138.141C106.517 136.461 106.309 135.405 106.645 133.613C107.109 131.23 107.605 128.846 108.101 126.478C108.885 122.735 109.189 121.343 109.669 119.039C110.117 116.864 110.485 115.072 110.725 113.92Z" fill="#7C9C96"/>
<path d="M119.556 116.048C117.925 115.888 116.469 115.744 114.965 115.584C114.885 115.232 114.837 114.928 114.725 114.641C114.421 113.809 113.909 113.169 113.109 112.753C111.125 111.713 108.998 111.393 106.79 111.537C106.07 111.585 105.494 111.985 105.046 112.545C104.822 112.833 104.614 113.121 104.326 113.489C103.335 113.409 102.567 113.153 102.087 112.961C101.351 112.657 100.903 112.465 100.647 112.001C100.359 111.457 100.487 110.881 100.647 110.241C100.759 109.745 100.919 109.105 101.447 108.801C101.767 108.625 102.103 108.625 102.247 108.641C104.87 108.785 116.821 111.105 118.708 111.649C120.404 112.129 120.964 112.385 121.284 112.977C121.7 113.761 121.62 115.072 120.804 115.696C120.34 116.032 119.812 116.048 119.556 116.048Z" fill="#7C9C96"/>
<path d="M32.08 80.1484C32.096 81.2363 32.128 82.1162 32.144 82.6121C32.272 87.3315 32.3999 89.2352 32.4319 92.8348C32.4319 93.6986 32.4319 94.3866 32.4319 94.7545C30.5442 93.3787 28.6404 92.0029 26.7527 90.627C25.5689 89.7632 24.385 88.9153 23.2012 88.0514C24.737 86.6756 26.2728 85.2998 27.8086 83.9239C29.2484 82.6601 30.6722 81.3963 32.08 80.1484Z" fill="#9CD6BD"/>
<path d="M94.375 109.424V102.657C95.0469 102.161 95.7188 101.665 96.4387 101.137C98.0545 102.832 99.5263 104.496 100.822 106.4C100.47 106.592 100.102 106.72 99.8463 106.96C99.4784 107.312 99.0304 107.712 98.8864 108.176C98.5665 109.232 98.3105 110.336 98.2305 111.439C98.1185 112.943 98.7904 113.807 100.246 114.303C100.95 114.543 101.686 114.687 102.39 114.895C102.742 114.991 103.062 115.151 103.446 115.311C103.366 116.687 102.582 117.743 102.214 119.134C101.894 118.814 101.654 118.638 101.494 118.414C99.7983 116.095 98.1025 113.775 96.4387 111.439C95.9108 110.623 95.3349 109.872 94.375 109.424Z" fill="white"/>
<path d="M110.725 113.922C110.277 116.081 107.366 130.687 106.886 133.599C106.678 134.831 106.374 136.607 105.942 138.782C105.83 138.974 105.718 139.166 105.606 139.358C105.238 139.966 104.838 140.526 104.454 141.022C104.246 140.462 104.054 139.854 103.894 139.214C103.814 138.942 103.75 138.67 103.686 138.398C103.654 138.046 103.67 137.582 103.846 137.086C103.862 137.022 103.894 136.974 103.894 136.958C104.23 135.263 104.566 133.567 104.87 131.855C105.014 131.087 105.094 130.303 105.206 129.519C105.382 125.232 106.198 120.353 108.325 115.361C108.581 114.753 108.853 114.177 109.125 113.602C109.429 113.634 109.749 113.682 110.085 113.762C110.309 113.81 110.517 113.858 110.725 113.922Z" fill="#A8E1C7"/>
<path d="M105.205 129.518C105.093 130.302 105.013 131.086 104.869 131.854C104.565 133.55 103.653 138.029 103.685 138.397C103.621 138.013 102.133 132.11 101.781 130.078C101.525 128.607 101.509 127.103 102.037 125.663C102.837 123.471 103.669 121.279 104.485 119.088C104.901 118 105.317 116.896 105.749 115.824C105.941 115.328 106.213 114.88 106.453 114.4C106.757 114.496 106.933 114.64 107.029 114.72C109.044 116.672 105.013 127.311 105.429 127.679C105.365 128.287 105.285 128.91 105.205 129.518Z" fill="#9CD6BD"/>
<path d="M107.509 96.9458C107.045 97.1698 102.758 101.041 101.094 102.737C100.774 102.561 99.0623 100.801 98.5664 100.129C98.7264 99.3295 107.045 93.1223 107.509 92.8184C107.781 93.1223 108.053 93.4263 108.325 93.7462C108.709 94.1782 109.093 94.6101 109.461 95.0421C109.317 95.33 107.797 96.8018 107.509 96.9458Z" fill="#5F586A"/>
<path d="M106.885 115.521C106.901 115.393 106.933 115.057 106.757 114.738C106.661 114.578 106.549 114.466 106.469 114.402C106.549 114.242 106.677 114.002 106.885 113.762C106.949 113.682 106.997 113.65 107.045 113.602C107.269 113.426 107.541 113.426 108.037 113.458C108.341 113.49 108.709 113.522 109.125 113.602C106.293 125.664 104.965 131.359 104.965 131.359C104.805 131.151 104.629 130.895 104.485 130.559C104.133 129.776 104.133 129.056 104.165 128.64C104.277 128.16 106.821 116.065 106.885 115.521Z" fill="#7C9C96"/>
<path d="M107.51 96.9463C107.734 96.6584 107.99 96.3384 108.326 96.0025C108.726 95.6025 109.11 95.2986 109.461 95.0586C109.925 95.4425 110.405 95.8745 110.901 96.3544C112.165 97.6183 113.093 98.8821 113.765 100.002C112.997 99.73 112.197 99.426 111.365 99.0421C109.893 98.3702 108.598 97.6502 107.51 96.9463Z" fill="#789B91"/>
<path d="M116.644 99.5083C116.612 99.7003 116.564 99.8923 116.484 100.292C115.204 98.5485 114.036 96.9807 112.82 95.3329C112.996 95.2369 113.252 95.1089 113.604 95.0609C113.716 95.0449 113.828 95.0449 113.924 95.0449C114.42 95.4609 115.092 96.1328 115.684 97.1246C116.228 98.0525 116.5 98.9004 116.644 99.5083Z" fill="#789B91"/>
<path d="M26.0968 95.8443C25.9528 95.5243 25.7608 95.3164 25.6168 95.2044C25.3289 94.9644 25.0889 94.9484 24.9769 94.7244C24.8649 94.5165 24.9449 94.2605 25.0089 94.1005C25.3769 93.6686 25.7288 93.2366 26.0968 92.8047C26.6247 93.1246 27.1686 93.4446 27.6966 93.7646C28.7684 94.4045 29.8243 95.0444 30.8961 95.6843C30.3202 95.8283 29.6163 95.9563 28.8164 96.0043C27.7445 96.0683 26.8167 95.9723 26.0968 95.8443Z" fill="#5F586A"/>
<path d="M116.645 99.5083C116.373 98.8364 116.006 98.0845 115.526 97.2846C114.998 96.3887 114.438 95.6528 113.926 95.0449C114.566 95.1889 115.206 95.3169 115.846 95.4609C115.91 95.4769 116.261 95.5249 116.485 95.8448C116.613 96.0368 116.645 96.2288 116.645 96.3248V99.5083Z" fill="#95C9B5"/>
<path d="M25.0085 94.0996C25.2644 94.2276 25.5844 94.4356 25.7604 94.7875C25.8883 95.0435 25.8564 95.2035 25.9363 95.3634C26.2723 96.1793 28.496 96.0034 28.496 96.0034C28.496 96.0034 28.496 96.0034 28.48 96.0034C27.2482 96.1153 26.4643 96.0514 24.8485 95.6194C24.6565 95.5714 24.3686 95.4914 24.0166 95.3634C24.1606 95.1555 24.3206 94.9475 24.4965 94.7235C24.6725 94.4996 24.8325 94.2916 25.0085 94.0996Z" fill="#789B91"/>
<path d="M17.298 100.002C18.0179 100.578 19.0898 101.314 20.4976 101.922C21.0255 102.146 22.6893 102.834 24.977 103.042C26.9448 103.218 28.6085 102.994 29.7764 102.722C29.8724 104.257 29.8244 106.049 29.4564 108.001C28.1286 115.088 23.4732 119.599 21.3455 121.423C20.7695 121.263 19.9857 121.007 19.0578 120.639C17.906 120.175 15.7622 119.311 13.6185 117.6C12.8986 117.024 9.82703 114.48 8.01927 109.921C7.36335 108.241 7.05939 106.769 6.89941 105.761C8.57919 105.473 9.92301 105.025 10.8989 104.641C11.9707 104.225 13.2026 103.745 14.5784 102.722C15.8742 101.762 16.7541 100.738 17.298 100.002Z" fill="#8BB8A9"/>
<path d="M81.2095 107.171C79.6097 107.555 78.2819 107.763 77.322 107.875C76.1862 108.019 75.2263 108.083 73.3226 108.195C72.7306 108.227 70.075 108.307 69.6911 108.291C68.9872 108.259 67.6593 108.275 66.9714 108.291C66.9714 108.291 65.0517 108.323 65.0517 108.291C65.0517 108.259 64.2838 103.667 63.0519 104.083C62.956 104.467 62.8599 104.931 62.8279 105.459C62.812 105.795 62.812 106.099 62.8279 106.387C61.8681 106.483 59.3564 106.547 59.1484 106.547V99.9879H73.2266C73.2106 98.4201 73.2106 96.8204 73.2266 95.1886C73.2586 93.2208 73.3066 91.3011 73.3865 89.4293C76.1062 90.3092 78.1539 90.8531 78.7778 90.9331C78.9858 90.9651 79.3857 90.9971 79.7377 90.7732C79.8977 90.6772 79.9937 90.5492 80.0577 90.4532C80.1216 88.2935 80.1856 86.1498 80.2656 83.9901C81.2895 83.3821 82.3294 82.7582 83.3532 82.1343C84.3611 81.5264 85.353 80.9185 86.3448 80.3105L86.5208 99.236C86.4888 99.348 86.4248 99.604 86.1848 99.828C85.9289 100.084 85.6249 100.132 85.529 100.148H81.1615C81.2255 101.252 81.2575 102.388 81.2735 103.571C81.2575 104.819 81.2575 106.019 81.2095 107.171Z" fill="#7C9C96"/>
<path d="M73.2095 99.9709H58.6515C58.7634 98.4351 58.8754 96.8993 58.9714 95.3315C59.0994 93.4437 59.1954 91.572 59.2914 89.7322C58.6675 89.6042 57.9795 89.5082 57.2116 89.4282C56.1398 89.3323 55.1639 89.3483 54.332 89.4123C54.38 88.0204 54.444 86.6446 54.492 85.2528C55.0199 85.5728 55.8358 86.0687 56.8597 86.6286C58.5074 87.5565 58.3155 87.4285 58.9554 87.7805C59.7873 88.2444 60.6192 88.7403 61.4511 89.2203C61.963 89.5082 62.459 89.5402 62.9709 88.9963C63.0349 87.8445 63.0989 86.6446 63.1149 85.4128C63.1468 84.037 63.1468 82.7091 63.1149 81.4453C63.4508 81.6053 64.3627 82.0052 65.1946 82.2132C65.4185 82.2772 65.6425 82.3092 65.9145 82.3252C66.2824 82.3412 66.5704 82.2772 66.7944 82.2132C67.6423 82.0052 68.5221 81.7013 68.8741 81.5733V85.2528V88.7723C68.9061 88.9803 68.9861 89.2523 69.194 89.4123C69.658 89.7482 70.4259 89.3323 72.3936 88.2924C73.3055 87.8125 73.9934 87.4285 74.5853 87.1086C75.1293 86.8046 75.3852 86.6606 76.2331 86.2127C76.985 85.7967 77.5929 85.4768 77.9929 85.2528V87.1726V89.2523H75.4332H73.0335C73.1135 91.124 73.1615 93.0438 73.1935 95.0115C73.2415 96.7073 73.2415 98.3551 73.2095 99.9709Z" fill="#9CD6BD"/>
<path d="M58.8114 106.369C59.0513 106.369 59.2113 106.369 59.2913 106.369C60.1872 106.369 62.0429 106.369 64.2506 106.369C64.9385 106.641 64.4266 106.977 64.4106 107.009C64.3626 107.072 66.4903 108.112 67.2902 108.288C66.4103 108.304 65.2105 108.304 63.7707 108.288C62.2829 108.272 60.7151 108.256 59.0513 108.144C57.3236 108.032 55.9797 107.856 53.2921 107.504C49.9325 107.056 48.2528 106.833 46.253 106.385C46.253 106.385 46.093 106.353 42.2536 105.425C41.9816 98.0017 41.9336 94.1462 41.9336 92.1625C41.9336 91.8585 41.9336 89.9068 41.9336 87.5231V83.0437V78.4043C42.6535 78.8202 43.4054 79.2522 44.1893 79.6681C45.1651 80.1961 46.125 80.676 47.0689 81.1079V99.1375C47.3409 99.4735 47.5808 99.7615 47.7728 100.001H56.2357C56.4756 102.097 56.1077 104.225 56.4437 106.369C57.2276 106.385 58.0115 106.385 58.8114 106.369Z" fill="#6F7C80"/>
<path d="M81.2088 107.168C81.1608 104.817 81.0968 102.481 81.0488 100.129C82.4886 100.113 83.9444 100.081 85.3842 100.065C85.4802 100.049 85.8802 100.001 86.1681 99.6493C86.3121 99.4574 86.3761 99.2654 86.3921 99.1534C86.3761 92.8662 86.3441 86.5791 86.3281 80.2919C87.16 79.828 88.0079 79.332 88.8558 78.8041C89.5277 78.3882 90.1676 77.9882 90.8075 77.5723C90.9195 82.0037 91.0155 86.4191 91.1275 90.8505C91.2395 95.2819 91.3355 99.6973 91.4474 104.129C89.8957 104.737 88.1839 105.345 86.3281 105.889C84.5204 106.432 82.8086 106.848 81.2088 107.168Z" fill="#6F7C80"/>
<path d="M56.2046 100.018H47.7577C47.6777 100.018 47.4857 99.9865 47.3097 99.8265C47.0218 99.5705 47.0538 99.2026 47.0538 99.1546V81.125C47.6617 81.429 48.2856 81.7169 48.8775 82.0369C49.9494 82.6128 51.0213 83.2047 52.0771 83.8126C52.2531 83.9086 52.3491 84.1166 52.4931 84.2766V90.2598C52.861 90.5797 53.133 90.8197 53.325 90.9797C54.3648 91.1717 55.3247 90.8517 56.2205 91.2197V100.018H56.2046Z" fill="#7C9C96"/>
<path d="M69.2097 107.011C69.4817 106.803 69.7376 106.579 70.0096 106.371C70.0096 106.307 70.0096 106.195 70.0096 106.051C70.0096 105.555 70.0576 105.123 70.0096 104.611C69.9936 104.499 69.9776 104.307 69.8496 104.131C69.8336 104.099 69.7696 104.035 69.6896 103.971C69.4497 103.795 69.1297 103.811 69.0497 103.811C68.5058 103.827 63.6424 103.811 63.4505 103.811C63.4025 103.811 63.2105 103.795 63.0345 103.923C63.0025 103.955 62.9705 103.971 62.9705 103.971C62.8265 104.131 62.8105 104.355 62.8105 104.451C62.8105 104.947 62.8105 105.187 62.8105 106.211C62.8105 106.275 62.8105 106.339 62.8105 106.371C63.1785 106.691 63.5624 107.011 63.9304 107.331C64.2983 107.651 64.6823 107.971 65.0502 108.291H65.8501H66.97H67.6099C67.8819 108.083 68.1378 107.859 68.4098 107.651" fill="#9CD6BD"/>
<path d="M59.4519 89.2511C58.604 89.2031 55.2924 88.9792 54.4925 88.9312V87.1714V85.2516C53.7246 84.8037 52.9407 84.3718 52.1729 83.9238V90.403C52.2688 90.5789 52.4288 90.8349 52.7168 90.9629C52.8927 91.0429 55.3884 91.0589 55.5964 91.0749C55.5964 93.4746 55.5964 95.8742 55.5964 98.2739C55.5964 100.978 55.6124 103.665 55.6284 106.369C56.1883 106.417 58.748 106.417 59.3079 106.369C59.2599 103.729 59.2599 101.026 59.2759 98.2739C59.2919 95.2023 59.3559 92.1947 59.4519 89.2511Z" fill="#A8E1C7"/>
<path d="M73.0508 89.252C73.8507 89.236 77.2262 89.028 78.0101 88.932V87.1722V85.2525C78.762 84.8205 79.4979 84.4046 80.2498 83.9727C80.2658 86.1324 80.2658 88.2921 80.2818 90.4678C80.1858 90.6438 80.0258 90.8997 79.7379 91.0277C79.5619 91.1077 77.0662 91.1237 76.8582 91.1397V98.3387V106.498C76.2503 106.514 75.6264 106.514 74.9865 106.514C74.3786 106.514 73.7707 106.514 73.1787 106.498C73.1947 103.81 73.1947 101.09 73.1787 98.3387C73.1627 95.2672 73.1148 92.2436 73.0508 89.252Z" fill="#A8E1C7"/>
<path d="M67.0036 113.888C63.724 113.92 60.0125 113.76 55.9651 113.249C52.3015 112.785 49.3739 112.129 47.4702 111.713C45.1665 111.201 43.1987 110.689 41.7109 110.273C41.9829 109.521 42.2389 108.785 42.5108 108.033C47.3742 109.457 51.3577 110.113 54.1893 110.433C57.5648 110.817 61.5323 110.993 63.1481 111.073C64.6999 111.137 65.9957 111.185 66.9076 111.201C66.9396 112.097 66.9716 112.993 67.0036 113.888Z" fill="#6F7C80"/>
<path d="M67.0028 113.888C66.9708 112.992 66.9388 112.097 66.9229 111.201C68.9386 111.249 70.6664 111.217 71.9622 111.169C73.162 111.121 75.1458 111.025 77.7214 110.689C79.2732 110.481 80.569 110.241 81.5609 110.049C81.5929 110.977 81.6249 111.905 81.6569 112.816C79.7691 113.12 77.7694 113.376 75.6417 113.568C72.5541 113.84 69.6585 113.936 67.0028 113.888Z" fill="#7C9C96"/>
<path d="M81.6575 112.832C81.6255 111.904 81.5935 110.976 81.5615 110.064C82.9533 109.84 84.1372 109.536 85.0811 109.264C86.3609 108.896 87.3048 108.528 88.2806 108.145C89.3205 107.729 90.6963 107.169 92.2801 106.385C92.3601 106.865 92.4081 107.409 92.4401 107.985C92.4721 108.624 92.4721 109.216 92.4401 109.744C90.1204 110.72 87.4487 111.632 84.4411 112.304C83.4813 112.512 82.5534 112.688 81.6575 112.832Z" fill="#6F7C80"/>
<path d="M45.2461 138.414V135.807C49.6775 135.919 54.0929 136.015 58.5243 136.127C58.4603 136.878 58.4123 137.63 58.3483 138.398C53.9809 138.398 49.6135 138.398 45.2461 138.414Z" fill="#605268"/>
<path d="M77.1455 138.381C77.1455 137.597 77.1615 136.813 77.1615 135.949C77.3535 135.965 85.9124 136.157 89.8798 135.981C89.8958 136.797 89.9118 137.597 89.9278 138.413C85.6724 138.397 81.4009 138.381 77.1455 138.381Z" fill="#605268"/>
<path d="M74.5857 131.854C74.5537 131.598 74.5218 131.326 74.5218 131.022C74.5058 130.734 74.5058 130.462 74.5218 130.222C77.1294 130.19 80.105 129.998 83.3846 129.502C86.5362 129.022 89.3678 128.366 91.7995 127.662C91.9275 128.302 92.0554 128.942 92.1834 129.582C91.4155 129.742 90.6636 129.918 89.8797 130.094C87.96 130.542 86.0882 131.006 84.2805 131.502C81.4168 131.678 78.5052 131.806 75.5456 131.838C75.2257 131.838 74.9057 131.838 74.5857 131.854Z" fill="#605268"/>
<path d="M77.1458 138.381C81.4172 138.381 85.6727 138.397 89.9441 138.397C89.9761 139.565 90.0081 140.733 90.0561 141.884C89.2722 141.9 88.4723 141.916 87.6564 141.916C86.9045 141.916 86.1686 141.9 85.4487 141.868V140.461C85.1448 140.173 84.8728 139.917 84.5688 139.645H77.1458C77.1298 139.229 77.1298 138.797 77.1458 138.381Z" fill="#6A6E79"/>
<path d="M45.2459 138.367H58.3641C58.3161 139.535 58.2521 140.719 58.2041 141.887C56.8283 141.887 55.4525 141.871 54.0927 141.871V140.463C54.0607 140.367 54.0127 140.239 53.8847 140.127C53.6767 139.935 53.3728 139.967 53.2448 139.967C52.7489 139.983 53.6927 139.855 51.805 139.807C50.4932 139.775 48.6054 139.807 47.6455 139.807C47.0856 139.807 46.2537 139.791 45.2139 139.711C45.2139 139.263 45.2299 138.815 45.2459 138.367Z" fill="#6A6E79"/>
<path d="M84.1839 131.198C86.0876 130.83 91.4149 129.742 92.1828 129.566C92.2628 130.19 92.3428 130.83 92.4388 131.486C92.5348 132.094 92.6308 132.702 92.7427 133.278C91.3189 133.598 85.6077 133.406 84.1839 133.406C84.1679 132.67 84.1679 131.934 84.1839 131.198Z" fill="#6A6E79"/>
<path d="M51.8368 133.392C48.6212 133.344 45.4056 133.296 42.2061 133.248C42.2381 133.184 42.83 130.561 43.0059 129.889C43.3419 129.953 43.9018 130.049 44.5897 130.193C45.3256 130.353 45.8376 130.497 45.9656 130.513C47.9333 130.881 49.901 131.185 51.8688 131.52C51.8528 132.144 51.8528 132.768 51.8368 133.392Z" fill="#789B91"/>
<path d="M45.2136 139.708H51.0848C51.0848 139.708 52.5726 139.644 53.2765 139.708C53.9804 139.772 53.6604 139.708 53.9004 139.964C54.0764 140.156 54.0924 140.38 54.1084 140.46V141.868L45.1016 141.884C45.1336 141.164 45.1656 140.428 45.2136 139.708Z" fill="#789B91"/>
<path d="M77.13 139.646H84.553C84.617 139.646 84.985 139.662 85.2409 139.966C85.4009 140.158 85.4329 140.382 85.4329 140.462V141.87C82.6493 141.87 79.8657 141.886 77.082 141.886C77.098 141.15 77.114 140.398 77.13 139.646Z" fill="#789B91"/>
<path d="M84.1847 131.197C84.2167 131.933 84.2487 132.669 84.2807 133.405C81.0811 133.357 77.8815 133.293 74.6819 133.245C74.6499 132.781 74.6179 132.301 74.5859 131.837C74.9059 131.837 83.9607 131.197 84.1847 131.197Z" fill="#6F7C80"/>
<path d="M51.8369 133.388C51.8529 132.765 51.8529 132.141 51.8689 131.517L51.8849 131.469C54.8925 131.469 57.9161 131.485 60.9237 131.485C60.8757 131.597 60.8117 132.989 60.9237 133.245C60.7637 133.229 54.0286 133.404 51.8369 133.388Z" fill="#6A6E79"/>
<path d="M51.8687 131.518C49.9649 131.246 47.9972 130.91 45.9655 130.51C44.9576 130.302 43.9657 130.094 43.0059 129.886C43.0699 129.374 43.1498 128.862 43.2138 128.335C43.2938 127.983 43.3258 127.807 43.3258 127.807C43.3258 127.807 44.3817 128.095 44.4937 128.127C45.7255 128.463 50.1729 129.262 50.1729 129.262C50.1729 129.262 51.3087 129.47 51.8687 129.582C51.8687 130.238 51.8687 130.878 51.8687 131.518Z" fill="#6A6E78"/>
<path d="M51.8852 131.487C51.8852 130.863 51.8851 130.224 51.8691 129.6C53.9329 129.888 56.1246 130.112 58.4283 130.256C59.2762 130.304 60.1081 130.352 60.924 130.368V131.487C57.9164 131.487 54.8928 131.487 51.8852 131.487Z" fill="#605268"/>
<path d="M45.4379 11.1514C46.2538 11.5354 47.1977 11.5993 48.1576 11.5833C50.1893 11.5513 52.205 11.5513 54.2368 11.5833C55.2126 11.5993 56.1405 11.5194 57.1004 11.0874C57.2763 10.9114 57.5163 10.7035 57.7563 10.4795C58.0763 10.1915 58.3162 9.87157 58.4762 9.53562C58.7162 9.03968 58.7482 8.59174 58.7482 8.06381C58.7961 5.71212 58.8281 4.52828 58.8281 4.20832C58.8281 3.5844 58.8281 3.07247 58.8281 2.76851C58.8281 2.60853 58.8601 2.19259 59.1481 1.96862C59.3881 1.77664 59.692 1.80864 59.788 1.80864C64.2034 2.06461 68.6348 1.88863 73.0663 1.96862C73.2262 1.96862 73.6902 1.96862 74.0261 2.28858C74.2501 2.49655 74.3301 2.80051 74.4101 3.10447C74.5221 3.5844 74.5221 3.96835 74.5061 4.04834C74.4581 5.08821 74.2821 7.4079 74.3461 8.68773C74.3461 8.83171 74.3781 9.13567 74.5061 9.48762C74.5541 9.6316 74.746 10.1115 75.146 10.4475C75.6739 10.8954 76.3298 10.9114 76.5858 10.9274C78.8895 11.0394 80.0413 11.0874 87.7843 10.9274C87.9603 10.9274 88.4082 10.9114 88.7442 10.6075C89.1281 10.2715 89.2721 9.69559 89.1121 9.15167C89.2081 6.91196 89.0322 4.52828 89.2081 2.17659C90.52 1.93662 102.502 1.88863 104.278 2.0966C104.422 2.1446 104.614 2.25658 104.758 2.44856C104.934 2.70452 104.918 2.97649 104.918 3.08847C104.854 5.1362 104.966 7.19993 104.838 9.24765C104.838 9.31165 104.854 10.6395 104.822 13.3111C104.806 15.1189 104.854 15.5988 104.758 17.1506C104.662 18.7824 104.502 20.1262 104.374 21.0381C104.118 21.646 103.382 22.046 102.598 22.4299C94.8874 26.2854 87.1764 30.1249 79.4654 33.9964C75.6739 35.9001 71.8824 37.8519 68.1229 39.8356C67.0191 40.4275 66.0912 40.3955 64.9873 39.8196C61.7398 38.1238 58.4282 36.54 55.1486 34.8763C46.9577 30.7328 38.7668 26.5734 30.5599 22.4299C29.84 22.062 29.1521 21.678 28.7681 20.9901C28.0642 15.0069 28.4482 9.03968 28.3522 3.08847C28.3522 2.8325 28.4322 2.57654 28.4802 2.25658C28.7841 2.16059 29.0721 1.98462 29.3601 1.98462C34.0954 1.98462 38.8468 2.00061 43.5822 2.01661C43.6301 2.01661 43.6782 2.04861 43.8381 2.0966C43.8861 2.40056 43.9821 2.75252 43.9821 3.10447C43.9981 4.75225 44.0461 6.41603 43.9661 8.06381C43.9341 9.35964 44.3021 10.3675 45.4379 11.1514Z" fill="#6A6E79"/>
<path d="M71.3065 51.2406C71.2905 62.7751 71.2425 74.3255 71.1625 85.86C71.1625 85.956 71.1625 86.8199 71.1465 86.9159C71.3545 86.7879 71.6584 86.6119 72.0104 86.3879C74.762 84.7242 76.5218 83.7803 78.6175 82.5644C80.4892 81.4766 82.377 80.3727 84.2488 79.2849C86.0405 78.261 87.8483 77.2531 89.64 76.2293C91.5758 75.1254 93.4955 74.0056 95.4313 72.9017C97.271 71.8459 99.0948 70.774 100.983 69.7981C102.086 69.2222 103.094 68.5663 103.926 67.5104C104.326 66.7265 104.422 65.7987 104.422 64.8228C104.406 54.4082 104.47 48.7289 104.406 33.9629C104.406 33.115 104.406 32.4431 104.406 32.2031C104.406 32.2031 103.462 32.6831 103.446 32.6831C102.934 32.955 95.5113 37.2265 71.3065 51.2406Z" fill="#6A6E79"/>
<path d="M61.2918 51.1937C61.3078 62.7282 61.3558 74.2787 61.4358 85.8131C61.4358 85.9091 61.4358 86.773 61.4518 86.869C61.2438 86.741 60.9398 86.565 60.5879 86.3411C57.8362 84.6773 56.0764 83.7334 53.9807 82.5176C52.109 81.4297 50.2212 80.3259 48.3495 79.238C46.5577 78.2141 44.75 77.2063 42.9582 76.1824C41.0225 75.0786 39.1027 73.9587 37.167 72.8549C35.3272 71.799 33.5035 70.7271 31.6157 69.7513C30.5119 69.1753 29.504 68.5194 28.6721 67.4636C28.2721 66.6797 28.1762 65.7518 28.1762 64.7759C28.1922 54.3613 28.1282 48.6821 28.1922 33.916C28.1922 33.0681 28.1922 32.3962 28.1922 32.1562C28.1922 32.1562 29.136 32.6362 29.152 32.6362C29.664 32.9082 37.087 37.1796 61.2918 51.1937Z" fill="#6A6E79"/>
<path d="M58.2528 127.666C56.909 127.57 55.4532 127.41 53.9334 127.186C52.6376 126.994 51.4058 126.754 50.2539 126.498L51.8537 116.947C52.7976 117.043 53.7574 117.139 54.7333 117.267C55.2452 117.331 55.7572 117.395 56.2531 117.475C57.213 117.603 58.1409 117.763 59.0527 117.907C58.7808 121.155 58.5248 124.418 58.2528 127.666Z" fill="#789B91"/>
<path d="M76.1689 127.665C74.7451 127.761 73.2413 127.825 71.6895 127.857C70.2497 127.889 68.8579 127.873 67.5301 127.825C67.5141 126.321 67.498 124.801 67.498 123.282C67.498 121.586 67.5141 119.89 67.5301 118.226C69.2898 118.21 71.0976 118.162 72.9694 118.066C73.8332 118.018 74.6811 117.97 75.529 117.906C75.641 119.554 75.737 121.218 75.849 122.866C75.945 124.465 76.0569 126.065 76.1689 127.665Z" fill="#95C9B5"/>
<path d="M76.1692 127.666C75.9612 124.418 75.7373 121.155 75.5293 117.907C76.5532 117.667 77.673 117.443 78.8889 117.267C80.1527 117.091 81.3365 116.995 82.4084 116.947C82.7923 118.051 83.1603 119.171 83.5282 120.307C84.2001 122.355 84.8401 124.386 85.448 126.386C84.2801 126.69 83.0003 126.962 81.6085 127.186C79.6248 127.49 77.785 127.634 76.1692 127.666Z" fill="#6A6E79"/>
<path d="M50.7329 116.784C50.5409 118.256 50.3329 119.743 50.1249 121.247C49.885 122.943 49.645 124.623 49.389 126.286C48.2212 126.174 46.8614 125.951 45.4056 125.599C43.9018 125.231 42.574 124.767 41.4541 124.303C41.8221 123.343 44.6377 115.584 44.7177 115.504C45.2456 115.504 45.7575 115.6 46.2535 115.728C47.3093 116 47.8372 116.176 47.9172 116.192C48.7651 116.4 48.9251 116.352 50.1089 116.624C50.3649 116.688 50.5889 116.736 50.7329 116.784Z" fill="#789B91"/>
<path d="M58.252 127.665C58.5239 124.417 58.7799 121.154 59.0518 117.906C60.2677 117.954 61.4995 118.002 62.7314 118.066C63.8512 118.114 64.9711 118.178 66.0909 118.226C66.1389 119.89 66.1709 121.57 66.1869 123.282C66.2029 124.817 66.2029 126.337 66.1869 127.825C65.067 127.841 63.8992 127.825 62.7314 127.809C61.1956 127.793 59.6918 127.745 58.252 127.665Z" fill="#95C9B5"/>
<path d="M89.768 115.186C90.4399 116.561 91.1438 117.953 91.8477 119.345C92.6476 120.913 93.4475 122.465 94.2474 123.984C93.4155 124.32 92.5197 124.64 91.5278 124.944C89.96 125.408 88.5042 125.712 87.2084 125.904C86.6164 124.304 86.0245 122.657 85.4486 120.945C84.9367 119.425 84.4567 117.937 84.0088 116.465C85.0806 116.177 86.2005 115.921 87.3683 115.665C88.1842 115.49 88.9841 115.33 89.768 115.186Z" fill="#6A6E79"/>
<path d="M95.2079 113.266C95.6719 113.762 96.2798 114.465 96.9677 115.345C97.1597 115.585 97.6716 116.257 98.5675 117.585C99.1594 118.465 99.9433 119.649 100.807 121.105C100.119 121.489 99.3674 121.856 98.5675 122.224C97.4476 122.736 96.3758 123.152 95.3679 123.504C94.616 122.112 93.8801 120.737 93.1282 119.345C92.3283 117.857 91.5284 116.353 90.7285 114.865C91.7204 114.561 92.4563 114.273 92.9682 114.066C93.1922 113.97 93.6241 113.81 94.248 113.586C94.648 113.442 94.984 113.33 95.2079 113.266Z" fill="#6A6E79"/>
<path d="M66.0916 118.222C64.0439 118.238 62.2041 118.174 60.6523 118.062C59.7405 117.998 57.5488 117.838 54.7331 117.422C53.5813 117.246 52.6054 117.086 51.8535 116.942C51.9655 116.207 52.0775 115.455 52.1894 114.719C53.6773 114.911 54.9251 115.071 55.853 115.183C57.9647 115.439 59.0526 115.567 60.3324 115.663C61.9002 115.775 63.116 115.807 63.6919 115.823C64.6358 115.839 65.4357 115.839 66.0916 115.823V117.102V118.222Z" fill="#6A6E79"/>
<path d="M75.529 117.905C74.3932 118.049 73.1613 118.161 71.8495 118.225C70.2977 118.305 68.8579 118.289 67.5301 118.225C67.4981 117.265 67.498 116.753 67.498 116.449C67.498 116.385 67.5301 115.825 67.5301 115.825C68.7779 115.873 70.1057 115.873 71.5295 115.825C72.9054 115.777 74.2172 115.665 75.417 115.537C75.449 116.321 75.497 117.105 75.529 117.905Z" fill="#6A6E79"/>
<path d="M75.53 117.905C75.498 117.121 75.45 116.321 75.418 115.537C76.4418 115.441 77.4817 115.329 78.5696 115.185C79.6734 115.041 80.7453 114.881 81.7692 114.705C81.8491 115.105 82.2971 116.641 82.4091 116.945C81.3532 117.185 80.4733 117.329 79.8494 117.425C79.0655 117.537 78.4096 117.617 77.1298 117.745C76.4579 117.809 75.8979 117.873 75.53 117.905Z" fill="#605268"/>
<path d="M89.7683 115.186C89.0164 115.41 88.2165 115.634 87.3686 115.826C86.1848 116.098 85.0649 116.306 84.0091 116.466C83.9611 116.338 83.4011 114.722 83.3691 114.546C84.153 114.434 85.0169 114.29 85.9288 114.066C86.9527 113.826 87.8965 113.538 88.7124 113.234C89.0644 113.89 89.4163 114.53 89.7683 115.186Z" fill="#605268"/>
<path d="M50.733 116.785C49.6611 116.609 48.5413 116.401 47.3734 116.145C46.4456 115.937 45.5657 115.729 44.7178 115.505C44.9417 114.769 45.1497 114.017 45.3737 113.281C46.7015 113.617 48.0613 113.921 49.4691 114.225C50.0131 114.337 50.541 114.449 51.0689 114.545C51.0049 114.849 50.9569 115.169 50.9089 115.505C50.829 115.937 50.781 116.369 50.733 116.785Z" fill="#6A6E79"/>
<path d="M95.2069 113.266C94.6309 113.474 94.039 113.698 93.4471 113.906C92.5352 114.242 91.6233 114.562 90.7275 114.866L90.2475 113.906L89.7676 112.946C90.4715 112.69 91.2074 112.45 91.9753 112.21C92.4232 112.066 92.8552 111.954 93.2871 111.826L95.2069 113.266Z" fill="#605268"/>
<path d="M43.6785 115.088C43.1985 116.256 42.7186 117.44 42.2386 118.608C41.5347 120.32 40.8468 122.016 40.1589 123.727C39.0711 123.535 37.7432 123.199 36.3194 122.607C35.3276 122.207 34.4797 121.76 33.7598 121.328C35.0556 119.872 35.9995 118.624 36.6394 117.76C37.8872 116.048 39.359 113.809 39.359 113.809C39.359 113.809 39.647 113.905 39.695 113.921C40.0789 114.049 40.3509 114.097 40.9748 114.273C41.0708 114.305 41.1988 114.337 41.3588 114.385C42.1587 114.608 43.1985 114.944 43.6785 115.088Z" fill="#789B91"/>
<path d="M43.6788 115.088C42.7989 114.912 41.8391 114.672 40.8152 114.336C40.3033 114.176 39.8233 113.984 39.3594 113.808C39.8393 113.12 40.3192 112.416 40.7992 111.729C41.3271 112 41.903 112.272 42.559 112.528C43.2469 112.8 43.8868 113.008 44.4787 113.168C44.4147 113.456 43.8388 114.816 43.6788 115.088Z" fill="#6A6E79"/>
<path d="M101.207 80.2133L98.951 78.1016C98.1511 78.4855 97.3352 78.9015 96.5033 79.3334C95.3834 79.9093 94.3116 80.5012 93.3037 81.0932C93.4157 84.4047 93.5437 87.7483 93.6877 91.0918C93.7997 93.9075 93.9276 96.7231 94.0716 99.5227C95.2555 98.7868 96.4393 98.0349 97.6551 97.235C99.3509 96.1152 100.983 95.0113 102.55 93.9075C102.694 92.5316 102.726 91.3798 102.742 90.5799C102.758 88.9641 102.774 86.2285 101.991 82.8529C101.687 81.7171 101.399 80.8052 101.207 80.2133Z" fill="#6F7C80"/>
<path d="M101.207 80.2129C101.175 81.3327 101.159 82.2126 101.143 82.7406C100.999 87.5719 100.871 89.5077 100.839 93.1712C100.839 94.0511 100.839 94.755 100.839 95.1229C102.855 93.7151 104.854 92.3073 106.87 90.9155C108.134 90.0356 109.382 89.1557 110.646 88.2758C109.014 86.868 107.382 85.4762 105.75 84.0684C104.214 82.7885 102.711 81.4927 101.207 80.2129Z" fill="#9CD6BD"/>
</svg>
