<svg width="759" height="354" viewBox="0 0 759 354" fill="none" xmlns="http://www.w3.org/2000/svg">
<path d="M9 32L0.339746 47H17.6603L9 32ZM9 319L17.6603 304H0.339746L9 319ZM7.5 45.5V305.5H10.5V45.5H7.5Z" fill="#5A4761"/>
<path d="M759 175L744 166.34V183.66L759 175ZM12 173.5C11.1716 173.5 10.5 174.172 10.5 175C10.5 175.828 11.1716 176.5 12 176.5V173.5ZM745.5 173.5L12 173.5V176.5L745.5 176.5V173.5Z" fill="#5A4761"/>
<path d="M56.9393 282.439C56.3536 283.025 56.3536 283.975 56.9393 284.561L66.4853 294.107C67.0711 294.692 68.0208 294.692 68.6066 294.107C69.1924 293.521 69.1924 292.571 68.6066 291.985L60.1213 283.5L68.6066 275.015C69.1924 274.429 69.1924 273.479 68.6066 272.893C68.0208 272.308 67.0711 272.308 66.4853 272.893L56.9393 282.439ZM301.5 283.5V285H302.899L302.996 283.604L301.5 283.5ZM317 60.5V59H315.601L315.504 60.396L317 60.5ZM451 60.5L452.496 60.386L452.39 59H451V60.5ZM468 283.5L466.504 283.614L466.61 285H468V283.5ZM682.561 284.561C683.146 283.975 683.146 283.025 682.561 282.439L673.015 272.893C672.429 272.308 671.479 272.308 670.893 272.893C670.308 273.479 670.308 274.429 670.893 275.015L679.379 283.5L670.893 291.985C670.308 292.571 670.308 293.521 670.893 294.107C671.479 294.692 672.429 294.692 673.015 294.107L682.561 284.561ZM58 285H61.5809V282H58V285ZM68.7426 285H75.9044V282H68.7426V285ZM83.0662 285H90.2279V282H83.0662V285ZM97.3897 285H104.551V282H97.3897V285ZM111.713 285H118.875V282H111.713V285ZM126.037 285H133.199V282H126.037V285ZM140.36 285H147.522V282H140.36V285ZM154.684 285H161.846V282H154.684V285ZM169.007 285H176.169V282H169.007V285ZM183.331 285H190.493V282H183.331V285ZM197.654 285H204.816V282H197.654V285ZM211.978 285H219.14V282H211.978V285ZM226.301 285H233.463V282H226.301V285ZM240.625 285H247.787V282H240.625V285ZM254.948 285H262.11V282H254.948V285ZM269.272 285H276.434V282H269.272V285ZM283.596 285H290.757V282H283.596V285ZM297.919 285H301.5V282H297.919V285ZM302.996 283.604L303.239 280.12L300.246 279.912L300.004 283.396L302.996 283.604ZM303.723 273.151L304.207 266.182L301.215 265.974L300.73 272.943L303.723 273.151ZM304.692 259.213L305.176 252.245L302.183 252.037L301.699 259.005L304.692 259.213ZM305.66 245.276L306.145 238.307L303.152 238.099L302.668 245.068L305.66 245.276ZM306.629 231.338L307.114 224.37L304.121 224.162L303.636 231.13L306.629 231.338ZM307.598 217.401L308.082 210.432L305.09 210.224L304.605 217.193L307.598 217.401ZM308.567 203.463L309.051 196.495L306.058 196.287L305.574 203.255L308.567 203.463ZM309.535 189.526L310.02 182.557L307.027 182.349L306.543 189.318L309.535 189.526ZM310.504 175.588L310.989 168.62L307.996 168.412L307.511 175.38L310.504 175.588ZM311.473 161.651L311.957 154.682L308.965 154.474L308.48 161.443L311.473 161.651ZM312.442 147.713L312.926 140.745L309.933 140.537L309.449 147.505L312.442 147.713ZM313.41 133.776L313.895 126.807L310.902 126.599L310.418 133.568L313.41 133.776ZM314.379 119.838L314.864 112.87L311.871 112.662L311.386 119.63L314.379 119.838ZM315.348 105.901L315.832 98.9321L312.84 98.7241L312.355 105.693L315.348 105.901ZM316.317 91.9633L316.801 84.9946L313.808 84.7866L313.324 91.7553L316.317 91.9633ZM317.285 78.0258L317.77 71.0571L314.777 70.8491L314.293 77.8178L317.285 78.0258ZM318.254 64.0883L318.496 60.604L315.504 60.396L315.261 63.8803L318.254 64.0883ZM317 62H320.35V59H317V62ZM327.05 62H333.75V59H327.05V62ZM340.45 62H347.15V59H340.45V62ZM353.85 62H360.55V59H353.85V62ZM367.25 62H373.95V59H367.25V62ZM380.65 62H387.35V59H380.65V62ZM394.05 62H400.75V59H394.05V62ZM407.45 62H414.15V59H407.45V62ZM420.85 62H427.55V59H420.85V62ZM434.25 62H440.95V59H434.25V62ZM447.65 62H451V59H447.65V62ZM449.504 60.614L449.77 64.0984L452.761 63.8704L452.496 60.386L449.504 60.614ZM450.301 71.0671L450.832 78.0359L453.824 77.8079L453.293 70.8391L450.301 71.0671ZM451.364 85.0046L451.895 91.9734L454.886 91.7454L454.355 84.7766L451.364 85.0046ZM452.426 98.9421L452.957 105.911L455.949 105.683L455.418 98.7141L452.426 98.9421ZM453.489 112.88L454.02 119.848L457.011 119.62L456.48 112.652L453.489 112.88ZM454.551 126.817L455.082 133.786L458.074 133.558L457.543 126.589L454.551 126.817ZM455.614 140.755L456.145 147.723L459.136 147.495L458.605 140.527L455.614 140.755ZM456.676 154.692L457.207 161.661L460.199 161.433L459.668 154.464L456.676 154.692ZM457.739 168.63L458.27 175.598L461.261 175.37L460.73 168.402L457.739 168.63ZM458.801 182.567L459.332 189.536L462.324 189.308L461.793 182.339L458.801 182.567ZM459.864 196.505L460.395 203.473L463.386 203.245L462.855 196.277L459.864 196.505ZM460.926 210.442L461.457 217.411L464.449 217.183L463.918 210.214L460.926 210.442ZM461.989 224.38L462.52 231.348L465.511 231.12L464.98 224.152L461.989 224.38ZM463.051 238.317L463.582 245.286L466.574 245.058L466.043 238.089L463.051 238.317ZM464.114 252.255L464.645 259.223L467.636 258.995L467.105 252.027L464.114 252.255ZM465.176 266.192L465.707 273.161L468.699 272.933L468.168 265.964L465.176 266.192ZM466.239 280.13L466.504 283.614L469.496 283.386L469.23 279.902L466.239 280.13ZM468 285H471.558V282H468V285ZM478.675 285H485.792V282H478.675V285ZM492.908 285H500.025V282H492.908V285ZM507.142 285H514.258V282H507.142V285ZM521.375 285H528.492V282H521.375V285ZM535.608 285H542.725V282H535.608V285ZM549.842 285H556.958V282H549.842V285ZM564.075 285H571.192V282H564.075V285ZM578.308 285H585.425V282H578.308V285ZM592.542 285H599.658V282H592.542V285ZM606.775 285H613.892V282H606.775V285ZM621.008 285H628.125V282H621.008V285ZM635.242 285H642.358V282H635.242V285ZM649.475 285H656.592V282H649.475V285ZM663.708 285H670.825V282H663.708V285ZM677.942 285H681.5V282H677.942V285Z" fill="#5A4761"/>
<g clip-path="url(#clip0_2_5197)">
<path d="M375.102 130.534C374.87 130.534 374.635 130.541 374.405 130.562C372.655 130.719 372.024 131.284 371.967 133.062C371.892 135.377 371.946 137.695 371.946 139.85C371.517 140.879 370.735 140.936 369.981 140.945C367.253 140.976 364.527 140.973 361.799 140.973L360.199 132.349C360.057 132.012 359.782 131.51 359.251 131.129C358.756 130.773 358.175 130.639 357.547 130.585C357.258 130.56 356.973 130.574 356.682 130.574C351.921 130.569 347.159 130.566 342.398 130.564C342.052 130.564 341.7 130.559 341.359 130.613C339.688 130.878 339.07 131.554 338.991 133.282C338.941 134.383 338.97 135.485 338.97 136.588C338.97 141.644 339.011 146.701 338.955 151.755C338.927 154.315 339.922 156.095 342.331 157.072C343.121 157.392 343.853 157.861 344.529 158.22C344.753 161.349 344.659 163.94 344.267 165.139C343.653 164.803 343.05 164.484 342.454 164.147C341.848 163.804 341.261 163.424 340.646 163.096C340.075 162.791 339.533 162.822 339.024 163.424C338.983 163.684 338.901 164.025 338.883 164.367C338.856 164.888 338.868 165.413 338.868 165.936C338.868 171.211 338.92 198.92 338.911 201.057C338.911 201.373 338.911 201.655 338.911 201.962C339.005 202.758 339.101 203.555 339.244 204.343C339.456 205.523 340.101 206.485 341.101 207.171C342.435 208.084 343.785 208.973 345.128 209.873C345.537 210.146 345.87 210.362 346.058 210.488C345.121 210.538 344.332 210.608 343.727 210.673C342.047 210.854 340.538 211.102 340.244 211.37C339.864 211.719 339.817 212.259 339.819 212.575C338.291 211.94 337.523 211.107 337.108 210.498C336.062 208.961 336.415 207.589 335.192 205.617C334.959 205.241 334.186 203.979 333.006 203.332C331.566 202.542 329.674 202.394 329.357 202.42C328.227 202.514 326.779 203.398 326.565 203.51C326.185 203.708 325.779 203.825 325.33 203.825C323.841 203.825 320.355 204.455 318.472 206.191C317.08 207.467 316.993 209.869 317 210.385C317.028 212.308 317.199 214.208 317.502 216.099C317.835 218.179 318.451 220.142 319.423 221.96C321.432 224.397 323.156 226.224 325.041 227.8C326.539 229.052 327.922 229.962 330.974 231.794C331.048 231.839 334.483 233.692 335.356 234.098C336.11 234.451 337.11 234.912 338.502 235.247C340.263 235.671 341.487 235.617 341.811 235.596C342.437 235.557 342.87 235.46 343.118 235.394C343.651 235.251 344.079 235.055 344.381 234.899C344.501 235.324 344.682 235.929 344.947 236.642C345.408 237.885 345.607 238.094 345.818 238.211C346.168 238.406 346.568 238.359 347.56 238.036C349.072 237.543 350.181 236.976 350.521 236.816C351.254 236.471 352.205 236.007 353.308 235.421C353.255 240.353 353.207 245.286 353.154 250.218C352.414 251.243 351.703 252.23 350.988 253.215C348.976 255.987 346.948 258.748 344.962 261.539C344.578 262.079 343.959 262.559 344.151 263.625C347.405 266.019 351.374 267.288 355.25 268.74C355.25 269.049 355.287 269.286 355.245 269.504C354.867 271.498 354.463 273.483 354.092 275.479C353.966 276.151 353.722 276.855 354.32 277.441C355.248 278.035 356.403 277.346 357.396 277.997V279.729C357.396 281.298 357.399 282.867 357.391 284.436C357.385 285.168 357.483 285.841 358.241 286.207C358.345 286.233 358.46 286.284 358.573 286.284C363.797 286.296 369.021 286.298 374.245 286.312C374.853 286.312 375.391 286.181 375.938 285.538C375.978 285.142 376.098 284.574 376.079 284.013C376.023 282.273 375.908 280.531 375.839 278.793C375.823 278.406 375.908 278.016 375.947 277.639C377.028 277.449 378.187 277.746 378.936 276.565C379.216 275.246 378.349 273.843 378.746 272.441C381.794 272.166 388.272 272.265 389.458 272.621C389.368 273.286 389.235 273.966 389.192 274.653C389.145 275.391 389.181 276.135 389.181 276.691C389.979 277.821 391.125 277.36 392.197 277.758C391.975 280.334 391.819 282.925 391.897 285.346C392.413 286.202 393.073 286.322 393.803 286.315C394.963 286.303 396.124 286.31 397.286 286.31C401.002 286.31 404.719 286.308 408.434 286.31C409.136 286.31 409.847 286.352 410.378 285.498C410.573 283.057 410.281 280.448 410.542 277.784C411.657 277.716 412.677 277.655 413.519 277.604C414.137 277.061 414.139 276.572 414.026 276.025C413.764 274.777 413.486 273.529 413.313 272.267C413.143 271.02 412.639 269.803 412.824 268.437C416.483 267.136 420.084 265.742 423.231 263.55C423.259 262.677 422.77 262.22 422.404 261.715C420.162 258.608 417.903 255.512 415.67 252.399C414.928 251.363 414.209 250.324 413.101 249.756V236.115C413.338 236.243 413.686 236.427 414.113 236.628C415.905 237.473 417.198 237.777 417.586 237.864C418.877 238.153 419.688 238.322 420.199 237.864C420.392 237.689 420.505 237.397 420.721 236.818C420.986 236.11 421.146 235.505 421.244 235.075C421.289 235.083 423.473 235.076 425.738 234.961C427.666 234.864 429.65 234.688 430.424 234.377C430.709 234.262 433.818 232.43 435.424 231.243C436.8 230.227 438.325 228.879 439.018 228.217C439.088 228.149 439.089 228.154 439.159 228.086C441.133 226.195 442.296 225.246 443.66 224.54C444.148 224.24 444.684 223.886 445.282 223.397C445.869 222.917 446.694 222.239 447.372 221.305C448.229 220.121 448.466 219.004 448.94 216.772C449.156 215.753 449.408 214.253 449.462 212.414C449.509 210.838 449.528 209.843 449.114 208.579C449.014 208.277 448.272 206.241 446.727 205.366C444.956 204.364 442.348 204.528 442.146 204.495C442.061 204.481 440.307 202.553 438.457 202.052C437.003 201.658 434.574 201.613 432.704 202.591C431.331 203.309 430.383 205.103 430.267 205.333C429.708 206.442 429.657 207.725 429.112 209.06C428.626 210.253 427.969 210.47 427.516 211.02C427.102 211.522 426.647 211.844 426.123 212.066C425.912 212.156 425.727 212.209 425.6 212.24C425.571 212.153 425.518 212.025 425.426 211.891C424.933 211.168 423.909 211.109 422.813 211.02C422.057 210.959 420.916 210.856 419.427 210.681C419.349 210.633 419.272 210.587 419.194 210.54C419.251 210.47 419.31 210.397 419.368 210.328C420.93 209.336 422.519 208.38 424.05 207.343C425.546 206.329 426.186 204.786 426.396 203.051C426.466 202.476 426.463 201.889 426.463 201.308C426.463 189.22 426.461 177.135 426.452 165.049C426.452 164.479 426.395 163.907 426.37 163.501C425.783 162.812 425.24 162.791 424.672 163.103C424.012 163.467 423.378 163.877 422.718 164.241C422.38 164.428 422.007 164.559 421.503 164.775C421.42 162.387 421.343 160.155 421.263 157.943C422.221 157.46 423.057 157.068 423.871 156.625C425.423 155.78 426.248 154.457 426.332 152.687C426.37 151.875 426.391 151.064 426.391 150.252C426.398 145.197 426.4 140.141 426.396 135.086C426.396 134.448 426.379 133.806 426.337 133.168C426.233 131.608 425.696 130.975 424.193 130.661C423.799 130.58 423.388 130.564 422.984 130.564C418.166 130.562 413.35 130.564 408.532 130.574C408.128 130.574 407.715 130.576 407.318 130.646C405.787 130.918 405.113 131.695 405.097 133.266C405.078 135.183 405.109 137.101 405.102 139.019C405.102 139.475 405.045 139.932 405.02 140.288C404.501 140.985 403.857 140.985 403.212 140.985C401.47 140.987 399.728 140.995 397.987 140.985C397.001 140.98 396.017 140.954 395.031 140.919C394.365 140.896 393.766 140.715 393.365 139.901C393.365 137.79 393.385 135.529 393.365 133.266C393.348 131.305 392.749 130.689 390.786 130.553C390.611 130.541 390.437 130.538 390.263 130.538C385.213 130.538 380.159 130.538 375.109 130.538L375.102 130.534Z" fill="#594660"/>
<path d="M419.425 210.681C419.346 210.633 419.268 210.584 419.189 210.535C419.247 210.465 419.306 210.396 419.364 210.326C419.385 210.444 419.404 210.563 419.425 210.681Z" fill="#5A4A62"/>
<path d="M356.719 36.0052C356.78 36.0577 356.841 36.1101 356.762 36.0419C356.832 36.1206 356.778 36.0594 356.726 36L356.72 36.0052H356.719Z" fill="#6F7C80"/>
<path d="M359.793 143.009C360.682 143.432 361.706 143.5 362.76 143.488C364.965 143.46 367.172 143.457 369.377 143.488C370.431 143.504 371.451 143.418 372.497 142.953C372.693 142.77 372.946 142.529 373.204 142.296C373.549 141.984 373.808 141.64 373.986 141.262C374.244 140.713 374.275 140.235 374.287 139.664C374.346 137.096 374.376 135.804 374.374 135.461C374.371 134.777 374.374 134.225 374.374 133.892C374.376 133.71 374.407 133.268 374.723 133.02C374.982 132.816 375.315 132.84 375.419 132.846C380.23 133.125 385.059 132.929 389.877 133.02C390.048 133.024 390.554 133.027 390.922 133.369C391.173 133.602 391.251 133.934 391.333 134.259C391.462 134.779 391.448 135.199 391.445 135.286C391.399 136.418 391.197 138.944 391.27 140.342C391.279 140.495 391.3 140.823 391.445 141.213C391.504 141.372 391.708 141.898 392.141 142.259C392.72 142.74 393.423 142.768 393.709 142.782C396.212 142.901 397.463 142.96 405.902 142.782C406.094 142.779 406.58 142.761 406.947 142.434C407.367 142.059 407.52 141.44 407.341 140.854C407.447 138.417 407.254 135.813 407.438 133.245C408.858 132.978 421.915 132.929 423.847 133.161C424 133.219 424.216 133.329 424.366 133.543C424.556 133.817 424.543 134.125 424.54 134.24C424.467 136.479 424.594 138.722 424.453 140.957C424.449 141.02 424.462 142.477 424.427 145.39C424.404 147.362 424.458 147.881 424.364 149.572C424.265 151.354 424.091 152.816 423.953 153.805C423.667 154.462 422.866 154.906 422.025 155.327C413.627 159.521 405.226 163.71 396.843 167.93C392.706 170.013 388.583 172.123 384.495 174.3C383.284 174.945 382.284 174.915 381.079 174.284C377.538 172.431 373.928 170.705 370.361 168.899C361.436 164.384 352.519 159.85 343.594 155.334C342.807 154.936 342.059 154.516 341.641 153.77C340.87 147.241 341.289 140.743 341.195 134.256C341.192 133.977 341.275 133.695 341.331 133.346C341.664 133.238 341.979 133.044 342.294 133.044C347.459 133.041 352.624 133.064 357.788 133.081C357.844 133.081 357.898 133.111 358.072 133.161C358.123 133.491 358.231 133.873 358.234 134.254C358.253 136.055 358.306 137.859 358.222 139.657C358.158 141.058 358.563 142.162 359.79 143.009" fill="#6A6E79"/>
<path d="M387.787 186.703C387.774 199.279 387.718 211.853 387.622 224.427C387.622 224.538 387.613 225.466 387.613 225.577C387.836 225.441 388.162 225.243 388.559 225.006C391.557 223.2 393.478 222.161 395.751 220.841C397.798 219.654 399.838 218.453 401.89 217.274C403.842 216.152 405.809 215.055 407.765 213.938C409.869 212.735 411.961 211.511 414.067 210.312C416.074 209.168 418.063 207.99 420.111 206.928C421.317 206.304 422.405 205.588 423.315 204.43C423.743 203.578 423.856 202.57 423.854 201.508C423.837 190.158 423.912 183.977 423.846 167.881C423.842 166.959 423.846 166.227 423.846 165.971L422.801 166.494C422.229 166.78 414.147 171.427 387.789 186.705" fill="#6A6E79"/>
<path d="M377.064 186.658C377.078 199.234 377.134 211.808 377.23 224.382C377.23 224.493 377.239 225.421 377.239 225.532C377.016 225.396 376.688 225.197 376.293 224.96C373.295 223.154 371.374 222.115 369.102 220.796C367.056 219.609 365.016 218.407 362.964 217.229C361.011 216.106 359.045 215.01 357.089 213.892C354.985 212.69 352.891 211.466 350.787 210.267C348.78 209.123 346.791 207.945 344.742 206.883C343.537 206.259 342.448 205.542 341.539 204.385C341.116 203.149 341.013 202.148 340.999 201.463C340.978 200.477 341.114 187.31 341.114 187.312C341.114 187.312 341.008 183.03 340.982 178.829C340.961 175.614 340.978 175.248 341.01 167.836C341.013 166.912 341.01 166.182 341.01 165.925L342.055 166.448C342.626 166.734 350.708 171.382 377.066 186.66" fill="#6A6E79"/>
<path d="M340.244 215.027C339.897 214.919 339.413 214.754 338.85 214.504C338.086 214.166 337.432 213.879 336.76 213.284C336.246 212.833 335.945 212.399 335.715 212.064C335.189 211.297 334.868 210.542 334.67 209.907C334.506 209.674 334.337 209.437 334.147 209.21C332.675 207.442 327.673 204.611 327.354 204.329C327.168 204.46 326.898 204.683 326.657 205.026C326.549 205.182 326.396 205.403 326.309 205.724C326.187 206.168 326.26 206.54 326.309 206.77C326.443 207.409 326.767 207.873 327.006 208.164C327.682 208.989 328.364 208.811 329.096 209.275C329.096 209.275 330.411 209.698 331.36 211.018C331.96 211.851 332.266 212.344 332.395 212.871C332.585 213.65 332.446 214.293 332.405 214.504C332.179 215.698 332.43 218.845 332.928 225.138C333.045 226.604 333.21 228.499 333.451 230.717C333.78 230.945 334.043 231.084 334.224 231.18C334.426 231.288 334.564 231.342 335.018 231.588C336.781 232.538 337.69 233.019 339.025 233.331C339.564 233.457 340.101 233.596 340.758 233.603C341.397 233.61 341.644 233.67 341.812 233.506C342.12 233.202 341.867 232.629 342.16 232.46C342.381 232.332 342.641 232.596 342.857 232.46C343.04 232.345 343.053 232.033 343.031 231.762C342.925 230.486 343.167 229.169 342.857 227.927C341.993 224.477 342.857 223.54 341.637 219.037C341.383 218.097 340.955 216.696 340.244 215.027Z" fill="#6F7C80"/>
<path d="M326.482 213.915C326.282 213.711 325.756 213.23 324.915 213.044C323.993 212.838 323.256 213.11 322.999 213.218C322.45 213.366 321.459 213.715 320.499 214.558C319.712 215.25 319.264 215.995 319.025 216.474C319.961 220.163 320.149 220.536 322.288 222.924C322.363 222.788 322.443 221.904 322.415 221.796C322.262 221.226 322.058 220.653 321.953 220.365C322.027 219.954 322.175 219.462 322.476 218.971C323.577 217.173 325.772 216.915 326.134 216.879C326.254 216.774 326.818 216.258 326.892 215.388C326.956 214.614 326.587 214.062 326.482 213.915Z" fill="#6F7C80"/>
<path d="M340.244 215.027C340.936 217.023 341.645 219.741 341.848 223.015C342.131 227.556 341.324 231.273 340.593 233.68C341.167 233.68 341.944 233.616 342.815 233.34C343.31 233.185 343.731 232.993 344.076 232.808C344.034 231.562 343.944 229.892 343.728 227.927C343.555 226.358 343.35 224.488 342.857 222.349C342.432 220.505 341.676 217.956 340.244 215.027Z" fill="#5F586A"/>
<path d="M326.691 211.914C326.732 211.344 326.757 211.014 326.778 210.732C326.004 210.017 325.213 209.416 324.592 208.675C324.006 207.978 323.597 207.13 323.123 206.37C320.758 206.224 319.441 207.017 318.471 209.14V212.663C318.786 212.475 319.201 212.252 319.704 212.039C320.578 211.668 321.284 211.515 321.467 211.476C321.845 211.396 322.625 211.258 323.618 211.288C324.883 211.326 325.933 211.623 326.692 211.916" fill="#6F7C80"/>
<path d="M326.309 205.722C327.22 205.692 327.939 205.802 328.399 205.896C330.834 206.398 332.478 207.823 333.45 208.685C334.006 209.179 334.419 209.623 334.67 209.906C334.102 207.585 333.295 205.938 332.753 205.373C332.443 205.049 332.106 204.793 332.106 204.793C331.583 204.397 331.12 204.197 331.012 204.153C330.674 204.012 329.914 203.705 328.921 203.804C328.597 203.836 327.948 203.909 327.354 204.327C327.31 204.359 326.93 204.629 326.657 205.025C326.535 205.199 326.448 205.38 326.441 205.396C326.382 205.518 326.34 205.63 326.309 205.722Z" fill="#789B91"/>
<path d="M345.643 223.569C345.881 225.529 346.115 227.504 346.339 229.496C346.585 231.663 346.817 233.812 347.036 235.946C347.898 235.753 352.614 233.283 353.307 232.634C353.307 232.608 353.342 227.824 353.307 224.789C353.279 222.426 353.187 219.108 352.894 215.057C352.241 214.639 349.574 213.185 349.015 212.925C348.809 213.413 348.515 214.123 348.168 214.985C347.769 215.983 347.475 216.753 347.421 216.891C346.639 218.957 345.89 222.399 345.643 223.569Z" fill="#6F7C80"/>
<path d="M345.644 223.569C346.012 221.631 346.55 219.459 347.346 217.133C347.87 215.599 348.44 214.196 349.016 212.925C348.72 212.749 348.405 212.573 348.071 212.4C347.839 212.28 347.611 212.168 347.388 212.064L344.252 212.587C343.556 212.704 342.859 212.819 342.162 212.935C342.812 214.734 343.453 216.594 344.078 218.514C344.637 220.231 345.16 221.918 345.646 223.569" fill="#9CD6BD"/>
<path d="M439.53 204.922C439.638 205.077 439.791 205.298 439.879 205.619C440 206.064 439.927 206.435 439.879 206.665C439.744 207.305 439.42 207.768 439.182 208.06C438.513 208.875 437.086 209.172 437.072 209.177C436.905 209.235 435.709 209.688 434.827 210.913C434.306 211.638 434.003 212.243 433.792 212.766C433.792 212.766 433.421 213.685 433.259 214.677C432.815 217.403 433.021 229.777 432.735 230.488C432.69 230.6 432.631 230.68 432.631 230.68C431.796 231.203 431.946 231.067 431.169 231.484C429.406 232.434 428.497 232.915 427.163 233.227C426.623 233.352 426.086 233.492 425.43 233.499C424.791 233.506 424.543 233.565 424.376 233.401C424.068 233.098 424.32 232.524 424.028 232.355C423.806 232.228 423.547 232.491 423.331 232.355C423.148 232.24 423.134 231.928 423.157 231.658C423.263 230.382 423.021 229.064 423.331 227.823C424.195 224.373 423.331 223.435 424.55 218.932C424.799 218.01 425.217 216.645 425.904 215.019C425.93 214.958 425.98 214.911 426.043 214.891C426.381 214.783 426.827 214.625 427.339 214.4C428.104 214.062 428.757 213.774 429.429 213.179C429.941 212.726 430.244 212.294 430.474 211.959C430.992 211.206 431.31 210.464 431.509 209.834C431.516 209.813 431.525 209.792 431.539 209.775C431.697 209.55 431.859 209.323 432.042 209.106C433.416 207.456 437.858 204.883 438.71 204.315" fill="#6F7C80"/>
<path d="M439.694 213.828C439.701 213.818 439.708 213.809 439.718 213.8C439.723 213.795 440.406 213.173 441.274 212.942C442.127 212.716 443.953 212.662 445.454 213.807C446.215 214.388 446.586 215.043 446.673 215.202C447.161 216.092 447.194 216.91 447.196 217.119C447.206 218.683 446.262 219.814 445.888 220.264C444.878 221.477 443.364 222.349 443.364 222.349C443.364 222.349 443.481 221.233 443.364 220.083C443.31 219.548 443.282 219.281 443.19 219.037C442.791 217.991 441.781 217.452 441.448 217.294C440.694 216.934 440.453 217.124 439.995 216.723C439.382 216.187 439.307 215.404 439.297 215.287C439.234 214.537 439.577 213.995 439.696 213.83" fill="#6F7C80"/>
<path d="M425.944 215.027C425.993 215.045 425.463 216.265 425 218.247C424.824 218.998 424.46 220.967 424.338 222.912C424.066 227.272 424.8 230.872 425.507 233.283C425.55 233.431 425.435 233.577 425.28 233.572C424.749 233.549 424.094 233.466 423.373 233.239C422.936 233.101 422.558 232.936 422.236 232.772C422.159 232.732 422.112 232.653 422.115 232.566C422.159 231.335 422.251 229.718 422.459 227.826C422.729 225.361 422.476 225.876 423.329 222.248C424.298 218.127 425.864 214.999 425.942 215.029" fill="#5F586A"/>
<path d="M439.49 210.554C439.683 210.219 441.061 209.322 441.62 208.576C442.289 207.685 442.317 206.309 442.317 206.309C442.317 206.309 443.595 206.03 444.755 206.309C445.328 206.447 445.727 206.686 445.933 206.81C446.37 207.075 447.288 207.758 447.696 208.989C447.802 209.311 447.831 209.648 447.891 210.317C447.983 211.339 448.042 212.015 447.716 212.235C447.436 212.423 447.021 212.17 446.483 211.933C445.227 211.379 443.712 211.147 442.569 211.182C441.451 211.217 440.5 211.45 439.77 211.706C439.631 211.755 439.436 210.645 439.49 210.551" fill="#6F7C80"/>
<path d="M438.833 204.224C438.236 203.806 437.626 203.738 437.266 203.701C436.273 203.602 435.512 203.911 435.175 204.05C435.123 204.073 433.965 204.686 433.219 205.67C432.437 206.702 432.052 208.142 431.518 209.796C431.518 209.796 432.53 208.785 432.737 208.583C433.775 207.568 435.543 206.104 437.788 205.793C438.438 205.704 439.879 205.612 439.879 205.612C439.879 205.612 439.689 205.178 439.53 204.922C439.302 204.552 439.006 204.346 438.833 204.224Z" fill="#789B91"/>
<path d="M420.368 222C420.374 222.025 420.546 223.719 420.543 223.744C420.306 225.691 420.069 227.415 419.846 229.393C419.612 231.468 419.186 233.555 418.975 235.598C418.959 235.742 419.015 235.809 418.879 235.758C417.618 235.291 413.805 233.281 412.96 232.601C412.908 232.559 412.878 232.496 412.878 232.428C412.873 231.717 412.847 227.467 412.878 224.687C412.905 222.345 412.997 219.068 413.283 215.069C413.288 214.998 413.326 214.931 413.387 214.893C414.094 214.457 416.158 213.329 416.954 212.928C417.071 212.869 417.21 212.922 417.261 213.042C417.458 213.514 417.717 214.142 418.015 214.883C418.414 215.88 418.708 216.65 418.762 216.79C419.538 218.835 420.112 220.799 420.367 222.002" fill="#6F7C80"/>
<path d="M420.579 223.665C420.212 221.678 419.663 219.436 418.841 217.03C418.341 215.569 417.801 214.227 417.252 213.005C417.205 212.901 417.244 212.779 417.343 212.723C417.589 212.582 417.846 212.439 418.116 212.299C418.327 212.191 418.534 212.088 418.736 211.992C418.778 211.973 418.824 211.966 418.869 211.975L421.935 212.486C422.542 212.587 423.15 212.69 423.76 212.791C423.898 212.813 423.981 212.955 423.934 213.087C423.316 214.808 422.704 216.584 422.109 218.413C421.593 219.994 421.008 222.319 420.578 223.667" fill="#9CD6BD"/>
<path d="M373.774 269.26C372.306 269.155 370.733 268.989 369.071 268.737C367.653 268.522 366.317 268.266 365.068 267.989C365.648 264.52 366.227 261.049 366.807 257.58C367.829 257.679 368.876 257.794 369.942 257.928C371.567 258.132 373.137 258.368 374.645 258.626C374.354 262.17 374.065 265.716 373.774 269.26Z" fill="#789B91"/>
<path d="M393.283 269.26C391.728 269.361 390.103 269.432 388.411 269.46C386.842 269.486 385.33 269.476 383.877 269.434C383.86 267.797 383.849 266.148 383.848 264.481C383.848 262.628 383.856 260.791 383.877 258.974C385.792 258.96 387.767 258.905 389.8 258.8C390.742 258.751 391.672 258.692 392.587 258.626C392.702 260.427 392.817 262.227 392.935 264.03C393.05 265.773 393.165 267.516 393.283 269.26Z" fill="#95C9B5"/>
<path d="M393.283 269.26C393.051 265.716 392.818 262.17 392.586 258.626C393.692 258.359 394.915 258.117 396.244 257.928C397.62 257.733 398.905 257.629 400.076 257.58C400.485 258.788 400.893 260.008 401.295 261.241C402.025 263.474 402.722 265.682 403.385 267.865C402.116 268.196 400.719 268.498 399.205 268.737C397.042 269.078 395.049 269.225 393.283 269.26Z" fill="#6A6E79"/>
<path d="M365.587 257.406C365.373 259.015 365.152 260.634 364.924 262.264C364.664 264.112 364.397 265.944 364.126 267.764C362.847 267.633 361.381 267.403 359.787 267.007C358.144 266.599 356.704 266.099 355.484 265.6C355.892 264.548 358.951 256.098 359.029 256.014C359.606 256.006 360.156 256.114 360.7 256.257C361.856 256.562 362.427 256.74 362.502 256.759C363.419 256.985 363.607 256.93 364.889 257.233C365.185 257.303 365.427 257.365 365.585 257.407" fill="#789B91"/>
<path d="M373.775 269.26C374.066 265.716 374.355 262.17 374.646 258.626C375.977 258.682 377.313 258.739 378.652 258.8C379.875 258.856 381.094 258.913 382.31 258.974C382.363 260.782 382.399 262.621 382.417 264.492C382.432 266.169 382.432 267.823 382.418 269.45C381.19 269.462 379.934 269.457 378.651 269.434C376.978 269.404 375.352 269.343 373.773 269.26" fill="#95C9B5"/>
<path d="M408.089 255.662C408.826 257.161 409.58 258.673 410.353 260.195C411.223 261.907 412.094 263.592 412.966 265.25C412.067 265.616 411.08 265.974 410.005 266.296C408.3 266.809 406.713 267.134 405.302 267.342C404.652 265.599 404.011 263.796 403.386 261.938C402.827 260.28 402.306 258.652 401.818 257.057C402.991 256.752 404.21 256.459 405.476 256.185C406.365 255.993 407.236 255.819 408.089 255.662Z" fill="#6A6E79"/>
<path d="M383.18 254.093C379.613 254.13 375.57 253.954 371.161 253.396C367.174 252.89 363.981 252.179 361.915 251.723C359.398 251.165 357.268 250.607 355.645 250.154C355.935 249.34 356.225 248.527 356.515 247.713C361.804 249.263 366.141 249.972 369.231 250.328C372.913 250.75 377.231 250.945 378.986 251.025C380.67 251.102 382.081 251.142 383.086 251.166C383.117 252.143 383.149 253.119 383.178 254.095" fill="#6F7C80"/>
<path d="M383.18 254.093C383.149 253.117 383.118 252.141 383.088 251.165C385.29 251.22 387.155 251.184 388.58 251.13C389.888 251.079 392.043 250.98 394.851 250.607C396.537 250.384 397.96 250.126 399.031 249.91C399.066 250.917 399.103 251.926 399.137 252.934C397.086 253.262 394.898 253.541 392.586 253.745C389.218 254.041 386.068 254.132 383.18 254.093Z" fill="#7C9C96"/>
<path d="M414.012 253.57C414.517 254.119 415.186 254.883 415.928 255.837C416.132 256.1 416.687 256.822 417.67 258.277C418.318 259.236 419.159 260.529 420.109 262.112C419.354 262.524 418.543 262.933 417.67 263.333C416.447 263.892 415.278 264.351 414.186 264.727C413.371 263.217 412.559 261.706 411.748 260.195C410.875 258.568 410.004 256.942 409.135 255.314C410.209 254.977 411.021 254.667 411.573 254.442C411.817 254.343 412.296 254.154 412.967 253.919C413.404 253.766 413.766 253.647 414.012 253.57Z" fill="#6A6E79"/>
<path d="M382.309 258.974C380.073 258.992 378.08 258.913 376.387 258.8C375.387 258.734 373.004 258.554 369.942 258.103C368.686 257.918 367.62 257.731 366.807 257.58C366.932 256.773 367.056 255.964 367.181 255.157C368.803 255.373 370.161 255.542 371.161 255.662C373.459 255.939 374.636 256.081 376.039 256.185C377.742 256.311 379.062 256.347 379.696 256.36C380.717 256.38 381.602 256.374 382.309 256.36V258.974Z" fill="#6A6E79"/>
<path d="M399.138 252.934C399.103 251.927 399.066 250.917 399.031 249.91C400.541 249.657 401.832 249.338 402.863 249.038C404.266 248.632 405.29 248.233 406.347 247.818C407.483 247.373 408.976 246.746 410.702 245.9C410.78 246.43 410.843 247.014 410.876 247.643C410.913 248.337 410.906 248.98 410.876 249.561C408.359 250.621 405.448 251.614 402.167 252.35C401.127 252.584 400.116 252.776 399.138 252.934Z" fill="#6F7C80"/>
<path d="M393.969 281.035C393.976 280.181 393.983 279.329 393.991 278.384C394.195 278.394 403.514 278.607 407.841 278.413C407.862 279.294 407.881 280.174 407.902 281.056C403.258 281.049 398.614 281.042 393.97 281.037" fill="#605268"/>
<path d="M391.196 273.917C391.16 273.639 391.132 273.333 391.12 273.007C391.108 272.697 391.109 272.406 391.12 272.136C393.959 272.101 397.206 271.89 400.763 271.355C404.203 270.837 407.276 270.117 409.932 269.347C410.07 270.046 410.209 270.745 410.347 271.444C409.519 271.622 408.685 271.808 407.843 272.003C405.753 272.486 403.719 272.999 401.745 273.532C398.632 273.729 395.462 273.856 392.233 273.907C391.886 273.912 391.541 273.917 391.196 273.921" fill="#605268"/>
<path d="M393.969 281.035C398.613 281.042 403.257 281.047 407.9 281.054C407.939 282.323 407.975 283.592 408.014 284.862C407.167 284.886 406.294 284.896 405.397 284.891C404.575 284.886 403.774 284.869 402.995 284.839V283.312C402.661 282.998 402.374 282.728 402.044 282.418H393.955C393.96 281.956 393.964 281.495 393.969 281.033" fill="#6A6E79"/>
<path d="M401.632 273.213C403.703 272.811 409.513 271.63 410.347 271.444C410.429 272.122 410.521 272.819 410.629 273.532C410.73 274.2 410.838 274.848 410.951 275.481C409.396 275.832 403.188 275.628 401.629 275.619C401.629 274.817 401.631 274.015 401.632 273.215" fill="#6A6E79"/>
<path d="M392.587 258.626C391.347 258.784 390.008 258.908 388.581 258.974C386.895 259.053 385.322 259.042 383.878 258.974C383.836 257.934 383.84 257.371 383.852 257.045C383.854 256.982 383.878 256.36 383.878 256.36C385.231 256.412 386.688 256.419 388.233 256.36C389.736 256.302 391.15 256.187 392.464 256.037C392.505 256.9 392.546 257.763 392.587 258.626Z" fill="#6A6E79"/>
<path d="M392.587 258.626C392.546 257.763 392.505 256.9 392.463 256.037C393.569 255.938 394.715 255.816 395.896 255.662C397.101 255.505 398.263 255.329 399.38 255.139C399.469 255.575 399.956 257.254 400.077 257.58C398.927 257.841 397.971 258.002 397.29 258.103C396.441 258.228 395.725 258.303 394.328 258.451C393.6 258.528 392.998 258.587 392.587 258.626Z" fill="#605268"/>
<path d="M408.089 255.662C407.266 255.908 406.395 256.143 405.476 256.36C404.189 256.661 402.964 256.888 401.818 257.057C401.759 256.924 401.163 255.153 401.121 254.965C401.98 254.846 402.915 254.679 403.908 254.442C405.028 254.175 406.044 253.863 406.948 253.541C407.327 254.249 407.709 254.955 408.089 255.662Z" fill="#605268"/>
<path d="M393.955 282.418H402.044C402.107 282.418 402.516 282.431 402.788 282.77C402.962 282.984 402.99 283.219 402.995 283.312V284.839C399.964 284.846 396.935 284.855 393.904 284.862C393.922 284.047 393.937 283.233 393.955 282.418Z" fill="#789B91"/>
<path d="M401.631 273.213L401.744 275.622C398.261 275.565 394.777 275.506 391.293 275.448C391.262 274.937 391.229 274.428 391.197 273.917C391.542 273.912 401.401 273.211 401.633 273.213" fill="#6F7C80"/>
<path d="M365.587 257.406C364.415 257.214 363.194 256.984 361.93 256.708C360.924 256.489 359.958 256.257 359.029 256.013C359.266 255.206 359.503 254.398 359.74 253.591C361.179 253.954 362.663 254.297 364.194 254.616C364.779 254.738 365.361 254.855 365.936 254.965C365.873 255.303 365.816 255.652 365.762 256.011C365.69 256.492 365.633 256.958 365.587 257.406Z" fill="#6A6E79"/>
<path d="M414.012 253.57C413.378 253.804 412.739 254.036 412.096 254.268C411.102 254.625 410.116 254.974 409.135 255.314L408.612 254.268L408.09 253.222C408.855 252.945 409.656 252.674 410.492 252.416C410.976 252.268 411.453 252.129 411.922 252.001L414.012 253.57Z" fill="#605268"/>
<path d="M357.909 255.558C357.385 256.835 356.862 258.113 356.341 259.393C355.584 261.251 354.829 263.111 354.077 264.971C352.887 264.755 351.454 264.389 349.896 263.751C348.825 263.312 347.895 262.827 347.109 262.356C348.512 260.773 349.555 259.414 350.245 258.471C351.603 256.612 353.206 254.163 353.206 254.163C353.206 254.163 353.512 254.266 353.565 254.283C353.979 254.421 354.275 254.47 354.953 254.665C355.051 254.693 355.188 254.733 355.369 254.785C356.259 255.047 357.388 255.396 357.911 255.558" fill="#789B91"/>
<path d="M357.91 255.558C356.945 255.362 355.898 255.097 354.796 254.737C354.238 254.554 353.709 254.362 353.207 254.163C353.73 253.408 354.252 252.652 354.775 251.897C355.343 252.191 355.982 252.49 356.691 252.768C357.436 253.063 358.138 253.29 358.781 253.466C358.701 253.78 358.084 255.265 357.91 255.558Z" fill="#6A6E79"/>
<path d="M398.991 247.539C397.252 247.952 395.801 248.177 394.763 248.306C393.518 248.461 392.482 248.531 390.409 248.654C389.757 248.693 386.881 248.778 386.449 248.759C385.688 248.728 384.232 248.749 383.488 248.759C383.488 248.759 381.4 248.79 381.398 248.759C381.398 248.728 380.564 243.719 379.212 244.167C379.101 244.582 379.003 245.086 378.963 245.663C378.939 246.029 378.94 246.366 378.959 246.667C377.916 246.777 375.185 246.845 374.953 246.841V239.694H390.282C390.261 237.988 390.259 236.244 390.282 234.464C390.309 232.32 390.369 230.227 390.456 228.189C393.408 229.142 395.638 229.742 396.331 229.827C396.552 229.855 396.991 229.902 397.376 229.653C397.55 229.54 397.66 229.4 397.725 229.304C397.798 226.958 397.871 224.61 397.946 222.262C399.064 221.591 400.186 220.916 401.309 220.234C402.4 219.574 403.485 218.913 404.565 218.252L404.76 238.87C404.734 238.985 404.652 239.271 404.391 239.52C404.107 239.792 403.783 239.853 403.669 239.869H398.911C398.973 241.068 399.015 242.314 399.031 243.604C399.047 244.964 399.031 246.277 398.991 247.539Z" fill="#7C9C96"/>
<path d="M390.283 239.694H374.432C374.555 238.024 374.672 236.34 374.78 234.639C374.911 232.583 375.027 230.551 375.128 228.537C374.449 228.401 373.693 228.285 372.869 228.213C371.7 228.112 370.643 228.124 369.729 228.189C369.786 226.677 369.845 225.168 369.903 223.656C370.483 224.008 371.373 224.54 372.488 225.163C374.283 226.165 374.074 226.025 374.771 226.412C375.684 226.918 376.578 227.457 377.483 227.974C378.042 228.293 378.581 228.318 379.143 227.737C379.222 226.48 379.277 225.176 379.309 223.831C379.342 222.335 379.34 220.892 379.309 219.504C379.678 219.675 380.664 220.119 381.571 220.344C381.821 220.407 382.066 220.452 382.361 220.459C382.766 220.47 383.076 220.402 383.313 220.344C384.245 220.119 385.201 219.783 385.578 219.647V227.491C385.609 227.725 385.693 228.018 385.926 228.189C386.428 228.558 387.271 228.105 389.41 226.969C390.408 226.439 391.159 226.034 391.8 225.685C392.394 225.361 392.674 225.204 393.59 224.702C394.407 224.254 395.073 223.892 395.506 223.656V228.014H390.107C390.194 230.054 390.253 232.146 390.281 234.29C390.305 236.129 390.303 237.932 390.281 239.694" fill="#9CD6BD"/>
<path d="M374.605 246.667C374.857 246.667 375.04 246.667 375.127 246.667C376.099 246.667 378.129 246.667 380.527 246.667C381.267 246.967 380.726 247.333 380.701 247.364C380.649 247.431 382.964 248.566 383.837 248.759C382.88 248.771 381.567 248.778 380.005 248.759C378.383 248.74 376.683 248.721 374.861 248.611C372.978 248.498 371.515 248.302 368.59 247.914C364.93 247.427 363.1 247.183 360.926 246.693C360.926 246.693 360.754 246.655 356.571 245.647C356.273 237.559 356.219 233.363 356.214 231.192C356.214 230.856 356.209 228.743 356.209 226.139V216.211C357.432 216.392 360.109 217.827 361.788 219.152V238.789C362.09 239.161 362.34 239.471 362.556 239.736H371.767C372.03 242.021 371.628 244.34 372.001 246.678C372.87 246.674 373.737 246.671 374.607 246.667" fill="#6F7C80"/>
<path d="M398.991 247.539C398.933 244.981 398.874 242.426 398.816 239.869C400.391 239.846 401.967 239.823 403.542 239.799C403.641 239.788 404.086 239.729 404.39 239.346C404.556 239.138 404.612 238.92 404.632 238.8L404.565 218.252C405.467 217.742 406.385 217.199 407.318 216.628C408.047 216.181 408.755 215.735 409.442 215.289C409.558 220.112 409.673 224.934 409.79 229.758C409.907 234.581 410.022 239.403 410.139 244.227C408.449 244.893 406.589 245.546 404.565 246.144C402.596 246.726 400.727 247.181 398.991 247.539Z" fill="#6F7C80"/>
<path d="M371.768 239.736H362.557C362.474 239.727 362.256 239.694 362.064 239.52C361.758 239.241 361.786 238.84 361.789 238.789V219.152C362.453 219.483 363.124 219.797 363.777 220.147C364.947 220.777 366.111 221.42 367.262 222.08C367.449 222.187 367.564 222.415 367.712 222.586V229.099C368.109 229.444 368.407 229.702 368.614 229.883C369.741 230.099 370.798 229.739 371.767 230.152V239.736H371.768Z" fill="#7C9C96"/>
<path d="M385.927 247.364C386.217 247.133 386.507 246.899 386.797 246.667C386.797 246.592 386.796 246.468 386.797 246.319C386.804 245.775 386.845 245.302 386.797 244.75C386.787 244.628 386.766 244.42 386.623 244.227C386.602 244.199 386.543 244.122 386.449 244.052C386.181 243.855 385.845 243.874 385.752 243.878C385.153 243.902 379.858 243.881 379.656 243.878C379.6 243.878 379.396 243.868 379.208 243.993C379.166 244.021 379.139 244.047 379.133 244.052C378.97 244.218 378.959 244.478 378.959 244.575C378.956 245.11 378.952 245.377 378.959 246.493C378.959 246.57 378.959 246.632 378.959 246.667C379.365 247.016 379.773 247.364 380.178 247.713C380.584 248.062 380.992 248.41 381.398 248.759H384.185C384.476 248.527 384.765 248.294 385.056 248.062" fill="#9CD6BD"/>
<path d="M375.302 228.014C374.375 227.959 370.769 227.725 369.902 227.666V223.656C369.059 223.174 368.216 222.691 367.371 222.208V229.266C367.47 229.46 367.648 229.728 367.956 229.869C368.157 229.962 370.858 229.974 371.088 229.998C371.085 232.613 371.085 235.228 371.088 237.843C371.093 240.784 371.104 243.725 371.12 246.665C371.738 246.718 374.509 246.718 375.126 246.665C375.082 243.782 375.07 240.841 375.095 237.843C375.121 234.494 375.192 231.217 375.3 228.013" fill="#A8E1C7"/>
<path d="M390.107 228.014C390.977 228.002 394.657 227.763 395.507 227.666V223.656C396.321 223.191 397.132 222.727 397.946 222.262C397.956 224.619 397.967 226.976 397.977 229.332C397.878 229.526 397.7 229.794 397.392 229.936C397.192 230.028 394.49 230.04 394.26 230.065V246.8C393.591 246.812 392.912 246.817 392.222 246.817C391.557 246.817 390.9 246.81 390.254 246.8C390.275 243.871 390.275 240.907 390.254 237.909C390.231 234.567 390.182 231.267 390.109 228.013" fill="#A8E1C7"/>
<path d="M359.426 281.14V278.312C364.246 278.429 369.064 278.544 373.883 278.661C373.819 279.484 373.754 280.308 373.69 281.131C368.935 281.135 364.179 281.136 359.426 281.14Z" fill="#605268"/>
<path d="M359.425 281.101H373.708L373.621 283.028L373.534 284.936C372.039 284.931 370.545 284.926 369.048 284.921V283.378C369.019 283.273 368.96 283.13 368.831 283.017C368.599 282.815 368.282 282.836 368.134 282.843C367.601 282.866 368.627 282.716 366.566 282.669C365.131 282.635 363.084 282.674 362.037 282.669C361.436 282.665 360.519 282.646 359.383 282.555C359.397 282.071 359.411 281.584 359.425 281.1" fill="#6A6E79"/>
<path d="M366.606 275.676C363.109 275.626 359.613 275.575 356.115 275.523C356.15 275.45 356.798 272.596 356.986 271.862C357.355 271.925 357.962 272.035 358.707 272.195C359.5 272.366 360.074 272.523 360.21 272.547C362.346 272.946 364.492 273.281 366.634 273.642C366.624 274.32 366.615 274.998 366.605 275.676" fill="#789B91"/>
<path d="M359.383 282.557H365.768C365.768 282.557 367.39 282.486 368.156 282.557C368.923 282.628 368.573 282.555 368.832 282.845C369.022 283.057 369.046 283.301 369.05 283.38V284.923L359.252 284.938C359.295 284.145 359.339 283.352 359.384 282.559" fill="#789B91"/>
<path d="M366.607 275.676C366.618 274.998 366.627 274.32 366.637 273.642L366.647 273.591C369.931 273.597 373.214 273.6 376.496 273.605C376.44 273.722 376.376 275.237 376.496 275.523C376.313 275.499 368.982 275.687 366.607 275.676Z" fill="#6A6E79"/>
<path d="M366.636 273.642C365.861 273.53 365.074 273.41 364.278 273.281C362.951 273.065 361.594 272.821 360.212 272.547C359.113 272.329 358.039 272.101 356.988 271.862C357.065 271.301 357.14 270.74 357.216 270.176C357.295 269.798 357.337 269.596 357.337 269.596C357.337 269.596 358.488 269.915 358.601 269.946C359.942 270.316 364.794 271.193 364.794 271.193C364.794 271.193 366.025 271.418 366.64 271.534C366.64 272.237 366.64 272.94 366.638 273.644" fill="#6A6E78"/>
<path d="M366.647 273.591C366.644 272.906 366.64 272.22 366.639 271.533C368.893 271.848 371.274 272.098 373.775 272.254C374.698 272.312 375.606 272.356 376.496 272.385V273.605C373.212 273.6 369.931 273.597 366.647 273.591Z" fill="#605268"/>
<path d="M329.985 210.748C329.917 210.796 329.903 211.593 329.903 211.593C329.903 211.593 329.444 212.831 329.369 213.024C329.181 213.505 328.655 215.001 327.932 216.37C327.069 217.998 325.981 219.518 325.599 219.996C324.897 220.874 324.516 220.611 324.516 220.611L327.303 288.128L332.631 287.752L329.984 210.748H329.985ZM320.647 61.6971C319.369 61.8261 317.996 62.771 317.996 62.771L323.831 203.994L324.054 204.458C324.154 204.477 324.246 204.498 324.343 204.517C325.073 203.914 325.92 203.518 326.831 203.259C327.531 202.938 328.505 202.931 328.79 202.79C329.045 202.664 329.172 201.859 329.172 201.859L323.549 62.2375C323.549 62.2375 321.736 61.589 320.647 61.6989V61.6971Z" fill="#7C9C96"/>
<path fill-rule="evenodd" clip-rule="evenodd" d="M323.842 61.4166C323.842 61.4167 323.842 61.4167 323.549 62.2375L323.842 61.4167C324.177 61.5363 324.405 61.8472 324.419 62.2024L330.042 201.824C330.044 201.881 330.041 201.938 330.032 201.995L329.172 201.859C330.032 201.995 330.032 201.995 330.032 201.995L330.032 201.995L330.032 201.996L330.031 202.001L330.029 202.012C330.028 202.021 330.026 202.033 330.023 202.047C330.018 202.076 330.011 202.115 330.001 202.162C329.982 202.255 329.953 202.384 329.912 202.522C329.873 202.656 329.815 202.826 329.732 202.989C329.669 203.113 329.505 203.409 329.175 203.572L328.79 202.79L329.176 203.571C329.176 203.571 329.176 203.571 329.175 203.572C328.978 203.669 328.747 203.712 328.616 203.735C328.52 203.753 328.401 203.771 328.287 203.789C328.223 203.799 328.161 203.808 328.105 203.817C327.742 203.876 327.427 203.944 327.193 204.051C327.153 204.07 327.112 204.085 327.069 204.097C326.245 204.332 325.515 204.68 324.898 205.189C324.697 205.356 324.431 205.423 324.175 205.373C324.123 205.362 324.073 205.352 324.029 205.343L324.02 205.341C323.972 205.331 323.931 205.322 323.889 205.314C323.619 205.262 323.389 205.084 323.269 204.836L323.046 204.372C322.995 204.265 322.966 204.149 322.961 204.03L317.126 62.8069C317.113 62.5075 317.256 62.2226 317.502 62.0528L317.996 62.7709C318.489 63.4891 318.489 63.4892 318.489 63.4892C318.489 63.4895 318.489 63.4897 318.488 63.4898L318.489 63.4894L318.489 63.4892L318.497 63.4844C318.504 63.4794 318.516 63.4713 318.533 63.4605C318.566 63.4387 318.617 63.406 318.683 63.3657C318.741 63.3306 318.81 63.2899 318.887 63.2459L324.671 203.228C324.366 203.408 324.071 203.612 323.789 203.845L323.889 203.967L323.831 203.994L323.909 203.991L324.1 204.222L324.054 204.458L324.226 204.375L324.343 204.517L324.386 204.298L324.839 204.08L324.694 203.779L324.671 203.228C325.261 202.88 325.889 202.626 326.532 202.438C326.511 202.447 326.489 202.456 326.468 202.466L326.831 203.259L326.592 202.42C326.572 202.426 326.552 202.432 326.532 202.438C326.982 202.244 327.473 202.154 327.827 202.096C327.914 202.082 327.989 202.071 328.055 202.061C328.123 202.05 328.183 202.041 328.241 202.031C328.241 202.031 328.241 202.032 328.241 202.032C328.216 202.116 328.194 202.17 328.182 202.194C328.176 202.205 328.183 202.19 328.206 202.162M328.241 202.031C328.264 201.953 328.282 201.874 328.295 201.811C328.296 201.807 328.297 201.802 328.298 201.797L322.703 62.8833C322.58 62.8474 322.441 62.8093 322.294 62.7723C321.712 62.6258 321.115 62.5276 320.734 62.5661C320.719 62.5676 320.703 62.5688 320.688 62.5695C320.216 62.6267 319.686 62.8341 319.232 63.0616C319.105 63.1257 318.988 63.1886 318.887 63.2459L318.866 62.7349L317.996 62.7709C317.502 62.0528 317.503 62.0527 317.503 62.0526L317.504 62.0519L317.505 62.0507L317.511 62.0472C317.515 62.0444 317.52 62.0407 317.527 62.0362C317.54 62.0272 317.559 62.0149 317.582 61.9997C317.629 61.9692 317.695 61.9271 317.777 61.8768C317.942 61.7766 318.175 61.6422 318.452 61.5032C318.989 61.2335 319.764 60.9102 320.56 60.8299C320.581 60.8277 320.603 60.8263 320.625 60.8258C321.319 60.7706 322.14 60.9359 322.719 61.0817C323.034 61.1611 323.312 61.2438 323.511 61.3067C323.611 61.3382 323.691 61.365 323.748 61.3842C323.777 61.3939 323.799 61.4016 323.815 61.4071L323.834 61.4137L323.839 61.4157L323.842 61.4166M328.241 202.031C328.264 202.027 328.286 202.024 328.309 202.02C328.403 202.003 328.438 201.992 328.439 201.993M329.262 210.259C329.29 210.218 329.322 210.179 329.357 210.142C329.521 209.972 329.747 209.876 329.983 209.876H329.985C330.366 209.876 330.703 210.124 330.816 210.488C330.846 210.582 330.859 210.679 330.856 210.774L333.501 287.722C333.518 288.191 333.16 288.588 332.692 288.621L327.364 288.998C327.129 289.014 326.898 288.935 326.722 288.778C326.547 288.621 326.442 288.4 326.433 288.164L323.646 220.647C323.632 220.317 323.806 220.007 324.095 219.848C324.262 219.755 324.452 219.722 324.635 219.747C324.693 219.702 324.789 219.614 324.919 219.451C325.271 219.011 326.328 217.534 327.162 215.962C327.744 214.859 328.191 213.674 328.439 213.018C328.485 212.895 328.525 212.79 328.557 212.708C328.593 212.615 328.723 212.267 328.848 211.932C328.91 211.765 328.97 211.604 329.014 211.485L329.037 211.425C329.039 211.347 329.043 211.243 329.049 211.137C329.056 211.028 329.065 210.898 329.08 210.784C329.088 210.73 329.099 210.654 329.12 210.577C329.129 210.54 329.148 210.476 329.18 210.404L329.181 210.403C329.191 210.381 329.216 210.326 329.262 210.259ZM329.278 215.584C329.104 215.975 328.911 216.381 328.701 216.777L328.701 216.778C327.81 218.458 326.69 220.025 326.279 220.54L326.279 220.54C325.997 220.894 325.711 221.152 325.416 221.315L328.136 287.196L331.732 286.942L329.278 215.584ZM325.008 219.892L325.007 219.891L325.006 219.891C325.007 219.891 325.008 219.892 325.008 219.892Z" fill="#594660"/>
<path d="M435.523 212.236C435.6 212.285 435.593 211.593 435.593 211.593C435.593 211.593 436.115 212.831 436.201 213.024C436.415 213.505 437.011 215.001 437.834 216.37C438.813 217.998 440.05 219.518 440.486 219.996C441.285 220.874 441.717 220.611 441.717 220.611L438.549 288.128L432.492 287.752L435.525 212.236H435.523ZM446.115 61.6971C447.568 61.8261 449.129 62.771 449.129 62.771L442.703 204.789L442.355 205.157C442.241 205.176 442.025 204.5 441.916 204.519C441.087 203.916 440.125 203.52 439.089 203.26C438.293 202.94 437.185 202.933 436.861 202.792C436.572 202.666 436.427 201.861 436.427 201.861L442.818 62.2375C442.818 62.2375 444.879 61.589 446.115 61.6989V61.6971Z" fill="#7C9C96"/>
<path fill-rule="evenodd" clip-rule="evenodd" d="M443.659 62.9061L437.302 201.79C437.302 201.79 437.302 201.79 437.302 201.79C437.316 201.851 437.336 201.928 437.362 202.003C437.363 202.008 437.365 202.013 437.366 202.018C437.367 202.018 437.368 202.018 437.369 202.018C437.461 202.033 437.556 202.046 437.666 202.061C437.742 202.071 437.825 202.082 437.92 202.096C438.323 202.153 438.865 202.241 439.355 202.429C440.243 202.656 441.103 202.983 441.891 203.458L448.234 63.2772C448.113 63.2164 447.971 63.1488 447.815 63.0799C447.292 62.8492 446.661 62.6299 446.087 62.57C446.071 62.5695 446.054 62.5685 446.038 62.5671C445.564 62.525 444.853 62.6314 444.191 62.778C443.997 62.821 443.816 62.8653 443.659 62.9061ZM446.129 60.8256C445.379 60.7719 444.473 60.93 443.814 61.076C443.461 61.1543 443.149 61.236 442.926 61.2981C442.814 61.3292 442.723 61.3556 442.66 61.3745C442.628 61.384 442.603 61.3916 442.586 61.3969L442.565 61.4033L442.559 61.4051L442.557 61.406C442.557 61.406 442.557 61.4061 442.818 62.2375L442.557 61.4061C442.208 61.5158 441.965 61.832 441.948 62.1976L435.557 201.821C435.554 201.886 435.558 201.951 435.57 202.015L436.427 201.861C435.57 202.015 435.57 202.015 435.57 202.015L435.57 202.016L435.57 202.018L435.571 202.022L435.573 202.033C435.575 202.042 435.577 202.054 435.58 202.069C435.586 202.098 435.595 202.139 435.606 202.187C435.628 202.281 435.662 202.413 435.709 202.555C435.754 202.691 435.822 202.866 435.918 203.032C435.999 203.17 436.18 203.446 436.513 203.591C436.711 203.677 436.948 203.717 437.098 203.74C437.204 203.757 437.334 203.775 437.462 203.792C437.535 203.802 437.608 203.812 437.675 203.822C438.09 203.881 438.472 203.952 438.763 204.069C438.8 204.084 438.838 204.096 438.877 204.106C439.801 204.338 440.625 204.677 441.325 205.168C441.333 205.185 441.343 205.204 441.354 205.227L441.36 205.239C441.396 205.311 441.454 205.428 441.516 205.526C441.546 205.575 441.608 205.668 441.698 205.757C441.744 205.802 441.826 205.875 441.944 205.933C442.067 205.995 442.263 206.057 442.5 206.017C442.686 205.985 442.857 205.894 442.987 205.757L443.335 205.389C443.479 205.237 443.563 205.038 443.573 204.829L449.999 62.8104C450.013 62.4916 449.852 62.1904 449.579 62.0252L449.129 62.771C449.579 62.0252 449.579 62.0251 449.579 62.025L449.578 62.0244L449.576 62.0232L449.571 62.0199C449.566 62.0173 449.56 62.0138 449.553 62.0094C449.538 62.0007 449.518 61.9887 449.492 61.9738C449.44 61.9439 449.366 61.9025 449.273 61.853C449.089 61.7541 448.828 61.6218 448.518 61.4849C447.912 61.2175 447.057 60.9057 446.192 60.8289C446.171 60.8271 446.15 60.826 446.129 60.8256ZM441.274 205.073C441.275 205.074 441.275 205.074 441.276 205.075C441.273 205.07 441.272 205.069 441.274 205.073ZM434.722 211.602C434.718 211.186 435.008 210.824 435.415 210.74C435.823 210.655 436.233 210.87 436.395 211.254L436.395 211.254L436.395 211.255L436.396 211.257L436.478 211.45C436.528 211.569 436.596 211.729 436.666 211.896C436.809 212.233 436.957 212.581 436.997 212.672C437.035 212.757 437.081 212.865 437.136 212.993C437.419 213.653 437.922 214.826 438.58 215.92C439.526 217.491 440.727 218.967 441.129 219.408L441.129 219.409C441.331 219.63 441.468 219.722 441.535 219.758C441.746 219.714 441.97 219.748 442.161 219.861C442.438 220.026 442.602 220.33 442.587 220.652L439.418 288.169C439.408 288.402 439.304 288.622 439.13 288.777C438.956 288.933 438.727 289.013 438.495 288.998L432.438 288.622C431.965 288.592 431.603 288.19 431.622 287.717L434.652 212.258C434.65 212.172 434.661 212.085 434.685 212C434.693 211.969 434.704 211.938 434.716 211.909C434.716 211.903 434.716 211.898 434.716 211.891C434.72 211.824 434.721 211.751 434.722 211.693C434.722 211.664 434.722 211.641 434.722 211.625L434.722 211.606L434.722 211.602C434.722 211.602 434.722 211.602 434.722 211.602ZM435.525 211.594L435.593 211.593C435.569 211.593 435.547 211.594 435.525 211.594ZM436.273 215.308C436.51 215.793 436.785 216.315 437.088 216.819C437.088 216.819 437.088 216.82 437.088 216.819M439.842 220.582C440.172 220.946 440.495 221.195 440.811 221.345L437.72 287.204L433.396 286.935L436.273 215.308M437.72 287.204L437.679 288.087L438.549 288.128L438.602 287.258L437.72 287.204ZM441.717 220.611L440.847 220.57L440.811 221.345C440.949 221.41 441.085 221.457 441.221 221.485C441.444 221.533 441.645 221.527 441.813 221.492C441.896 221.475 441.967 221.452 442.027 221.427C442.057 221.415 442.084 221.402 442.107 221.39C442.119 221.384 442.13 221.378 442.141 221.372C442.146 221.369 442.151 221.367 442.156 221.364L442.163 221.36L442.166 221.357L442.168 221.356C442.169 221.356 442.17 221.355 441.717 220.611ZM439.842 220.582L440.485 219.996L439.842 220.583C439.842 220.583 439.842 220.583 439.842 220.582ZM435.523 211.594L435.525 211.594C435.524 211.594 435.523 211.594 435.523 211.594Z" fill="#594660"/>
</g>
<path d="M328.811 35L324.299 23.552V35H320.987V17.768H325.355L330.347 30.536L335.363 17.768H339.731V35H336.419V23.456L331.859 35H328.811ZM350.597 35V33.416C350.181 34.008 349.653 34.464 349.013 34.784C348.373 35.088 347.613 35.24 346.733 35.24C345.405 35.24 344.333 34.88 343.517 34.16C342.701 33.44 342.293 32.48 342.293 31.28C342.293 30.032 342.789 29.08 343.781 28.424C344.773 27.768 346.197 27.44 348.053 27.44C348.421 27.44 348.773 27.456 349.109 27.488C349.445 27.504 349.805 27.536 350.189 27.584V26.816C350.189 26.096 349.997 25.536 349.613 25.136C349.229 24.736 348.685 24.536 347.981 24.536C347.261 24.536 346.693 24.736 346.277 25.136C345.861 25.536 345.621 26.096 345.557 26.816H342.557C342.621 25.824 342.885 24.968 343.349 24.248C343.829 23.512 344.461 22.944 345.245 22.544C346.045 22.144 346.957 21.944 347.981 21.944C349.661 21.944 350.965 22.384 351.893 23.264C352.837 24.144 353.309 25.368 353.309 26.936V35H350.597ZM345.437 31.184C345.437 31.712 345.613 32.136 345.965 32.456C346.333 32.776 346.829 32.936 347.453 32.936C348.301 32.936 348.965 32.72 349.445 32.288C349.941 31.84 350.189 31.248 350.189 30.512V29.6C349.805 29.536 349.461 29.496 349.157 29.48C348.853 29.448 348.557 29.432 348.269 29.432C347.341 29.432 346.637 29.576 346.157 29.864C345.677 30.152 345.437 30.592 345.437 31.184ZM358.703 35H354.983L359.303 28.472L355.271 22.184H359.111L361.727 26.6L364.367 22.184H367.871L363.887 28.592L368.183 35H364.391L361.511 30.392L358.703 35ZM381.605 29.384H378.893V35H375.245V17.768H381.605C383.013 17.768 384.221 17.984 385.229 18.416C386.253 18.848 387.037 19.488 387.581 20.336C388.141 21.184 388.421 22.24 388.421 23.504C388.421 24.752 388.141 25.816 387.581 26.696C387.037 27.576 386.253 28.248 385.229 28.712C384.221 29.16 383.013 29.384 381.605 29.384ZM381.581 20.84H378.893V26.312H381.581C382.605 26.312 383.397 26.064 383.957 25.568C384.517 25.056 384.797 24.376 384.797 23.528C384.797 22.68 384.517 22.024 383.957 21.56C383.397 21.08 382.605 20.84 381.581 20.84ZM393.949 28.784V35H390.613V22.184H393.685V24.656C394.165 23.84 394.861 23.2 395.773 22.736C396.685 22.272 397.653 22.04 398.677 22.04V25.496C397.749 25.432 396.925 25.48 396.205 25.64C395.501 25.784 394.949 26.112 394.549 26.624C394.149 27.12 393.949 27.84 393.949 28.784ZM405.98 35.24C405.052 35.24 404.188 35.072 403.388 34.736C402.604 34.4 401.916 33.928 401.324 33.32C400.748 32.712 400.292 32.008 399.956 31.208C399.636 30.392 399.476 29.52 399.476 28.592C399.476 27.648 399.636 26.776 399.956 25.976C400.292 25.176 400.748 24.472 401.324 23.864C401.916 23.256 402.604 22.784 403.388 22.448C404.188 22.112 405.052 21.944 405.98 21.944C406.908 21.944 407.764 22.112 408.548 22.448C409.348 22.784 410.036 23.256 410.612 23.864C411.204 24.472 411.66 25.176 411.98 25.976C412.316 26.776 412.484 27.648 412.484 28.592C412.484 29.52 412.316 30.392 411.98 31.208C411.66 32.008 411.204 32.712 410.612 33.32C410.036 33.928 409.348 34.4 408.548 34.736C407.764 35.072 406.908 35.24 405.98 35.24ZM405.98 32.288C406.54 32.288 407.052 32.144 407.516 31.856C407.98 31.568 408.348 31.152 408.62 30.608C408.908 30.048 409.052 29.376 409.052 28.592C409.052 27.792 408.908 27.12 408.62 26.576C408.348 26.032 407.98 25.624 407.516 25.352C407.052 25.064 406.54 24.92 405.98 24.92C405.436 24.92 404.924 25.064 404.444 25.352C403.98 25.624 403.604 26.032 403.316 26.576C403.044 27.12 402.908 27.792 402.908 28.592C402.908 29.376 403.044 30.048 403.316 30.608C403.604 31.152 403.98 31.568 404.444 31.856C404.924 32.144 405.436 32.288 405.98 32.288ZM418.797 35H415.485V25.04H412.893V22.184H415.485V21.488C415.485 20.208 415.821 19.224 416.493 18.536C417.181 17.848 418.189 17.504 419.517 17.504C419.933 17.504 420.309 17.544 420.645 17.624C420.997 17.688 421.309 17.776 421.581 17.888V20.528C421.405 20.448 421.205 20.392 420.981 20.36C420.757 20.328 420.533 20.312 420.309 20.312C419.861 20.312 419.493 20.408 419.205 20.6C418.933 20.792 418.797 21.112 418.797 21.56V22.184H422.133V25.04H418.797V35ZM427.149 35H423.837V22.184H427.149V35ZM427.701 19.208C427.701 19.768 427.493 20.24 427.077 20.624C426.661 20.992 426.125 21.176 425.469 21.176C424.813 21.176 424.277 20.992 423.861 20.624C423.445 20.24 423.237 19.768 423.237 19.208C423.237 18.616 423.445 18.136 423.861 17.768C424.277 17.384 424.813 17.192 425.469 17.192C426.125 17.192 426.661 17.384 427.077 17.768C427.493 18.136 427.701 18.616 427.701 19.208ZM438.12 31.76V34.664C437.72 34.872 437.312 35.016 436.896 35.096C436.496 35.192 436.048 35.24 435.552 35.24C434.688 35.24 433.928 35.08 433.272 34.76C432.632 34.424 432.136 33.928 431.784 33.272C431.432 32.6 431.256 31.792 431.256 30.848V25.04H428.664V22.184H431.256V18.392H434.568V22.184H438.24V25.04H434.568V30.08C434.568 30.816 434.728 31.352 435.048 31.688C435.384 32.008 435.848 32.168 436.44 32.168C436.76 32.168 437.064 32.136 437.352 32.072C437.64 31.992 437.896 31.888 438.12 31.76Z" fill="#9CD6BD"/>
<path d="M227.2 96.372H226.108V99H223.84V90.384H227.2C227.952 90.384 228.596 90.496 229.132 90.72C229.676 90.936 230.092 91.264 230.38 91.704C230.668 92.136 230.812 92.676 230.812 93.324C230.812 93.972 230.668 94.524 230.38 94.98C230.092 95.428 229.676 95.772 229.132 96.012C228.596 96.252 227.952 96.372 227.2 96.372ZM227.188 92.292H226.108V94.464H227.188C227.636 94.464 227.976 94.36 228.208 94.152C228.44 93.944 228.556 93.676 228.556 93.348C228.556 93.012 228.44 92.752 228.208 92.568C227.976 92.384 227.636 92.292 227.188 92.292ZM235.621 96.228V92.544H237.673V99H235.789V98.304C235.613 98.544 235.361 98.74 235.033 98.892C234.713 99.044 234.365 99.12 233.989 99.12C233.565 99.12 233.181 99.032 232.837 98.856C232.493 98.672 232.221 98.396 232.021 98.028C231.829 97.652 231.733 97.18 231.733 96.612V92.544H233.785V96.228C233.785 96.58 233.865 96.844 234.025 97.02C234.193 97.196 234.421 97.284 234.709 97.284C234.845 97.284 234.981 97.248 235.117 97.176C235.261 97.096 235.381 96.98 235.477 96.828C235.573 96.668 235.621 96.468 235.621 96.228ZM243.344 96.984V98.772C243.12 98.9 242.892 98.988 242.66 99.036C242.428 99.092 242.168 99.12 241.88 99.12C241.4 99.12 240.988 99.028 240.644 98.844C240.3 98.66 240.036 98.392 239.852 98.04C239.668 97.688 239.576 97.268 239.576 96.78V94.332H238.376V92.544H239.576V90.648H241.628V92.544H243.392V94.332H241.628V96.3C241.628 96.612 241.696 96.844 241.832 96.996C241.968 97.14 242.176 97.212 242.456 97.212C242.624 97.212 242.784 97.192 242.936 97.152C243.096 97.112 243.232 97.056 243.344 96.984ZM253.885 96.18C253.885 96.772 253.733 97.288 253.429 97.728C253.133 98.168 252.713 98.512 252.169 98.76C251.625 99 250.977 99.12 250.225 99.12C249.481 99.12 248.829 98.996 248.269 98.748C247.717 98.492 247.277 98.132 246.949 97.668C246.629 97.204 246.441 96.656 246.385 96.024H248.677C248.693 96.432 248.829 96.756 249.085 96.996C249.349 97.236 249.713 97.356 250.177 97.356C250.441 97.356 250.669 97.324 250.861 97.26C251.053 97.196 251.201 97.1 251.305 96.972C251.417 96.844 251.473 96.692 251.473 96.516C251.473 96.332 251.389 96.176 251.221 96.048C251.061 95.912 250.853 95.82 250.597 95.772L249.025 95.472C248.681 95.408 248.369 95.308 248.089 95.172C247.809 95.036 247.565 94.868 247.357 94.668C247.157 94.46 247.001 94.22 246.889 93.948C246.785 93.668 246.733 93.356 246.733 93.012C246.733 92.476 246.877 92.004 247.165 91.596C247.453 91.18 247.849 90.856 248.353 90.624C248.857 90.392 249.433 90.276 250.081 90.276C250.769 90.276 251.377 90.4 251.905 90.648C252.441 90.896 252.869 91.248 253.189 91.704C253.517 92.152 253.701 92.688 253.741 93.312H251.449C251.433 93.048 251.365 92.82 251.245 92.628C251.125 92.436 250.969 92.288 250.777 92.184C250.585 92.08 250.361 92.028 250.105 92.028C249.881 92.028 249.689 92.064 249.529 92.136C249.369 92.208 249.245 92.308 249.157 92.436C249.069 92.556 249.025 92.696 249.025 92.856C249.025 92.984 249.061 93.096 249.133 93.192C249.213 93.28 249.317 93.356 249.445 93.42C249.573 93.476 249.713 93.52 249.865 93.552L251.533 93.876C252.301 94.028 252.885 94.296 253.285 94.68C253.685 95.056 253.885 95.556 253.885 96.18ZM256.931 95.604V99H254.879V90.384H256.931V93.24C257.163 92.984 257.411 92.784 257.675 92.64C257.939 92.496 258.275 92.424 258.683 92.424C259.323 92.424 259.843 92.632 260.243 93.048C260.651 93.464 260.855 94.064 260.855 94.848V99H258.803V95.532C258.803 95.124 258.727 94.812 258.575 94.596C258.431 94.38 258.203 94.272 257.891 94.272C257.723 94.272 257.563 94.316 257.411 94.404C257.267 94.492 257.151 94.632 257.063 94.824C256.975 95.016 256.931 95.276 256.931 95.604ZM265.109 99.12C264.629 99.12 264.185 99.036 263.777 98.868C263.369 98.692 263.013 98.452 262.709 98.148C262.405 97.836 262.165 97.48 261.989 97.08C261.821 96.672 261.737 96.236 261.737 95.772C261.737 95.308 261.821 94.876 261.989 94.476C262.165 94.068 262.405 93.712 262.709 93.408C263.013 93.096 263.369 92.856 263.777 92.688C264.185 92.512 264.629 92.424 265.109 92.424C265.589 92.424 266.033 92.512 266.441 92.688C266.849 92.856 267.205 93.096 267.509 93.408C267.813 93.712 268.049 94.068 268.217 94.476C268.393 94.876 268.481 95.308 268.481 95.772C268.481 96.236 268.393 96.672 268.217 97.08C268.049 97.48 267.813 97.836 267.509 98.148C267.205 98.452 266.849 98.692 266.441 98.868C266.033 99.036 265.589 99.12 265.109 99.12ZM265.109 97.284C265.325 97.284 265.525 97.228 265.709 97.116C265.901 97.004 266.053 96.836 266.165 96.612C266.285 96.388 266.345 96.108 266.345 95.772C266.345 95.436 266.285 95.156 266.165 94.932C266.053 94.708 265.901 94.544 265.709 94.44C265.525 94.328 265.325 94.272 265.109 94.272C264.901 94.272 264.701 94.328 264.509 94.44C264.317 94.544 264.161 94.708 264.041 94.932C263.929 95.156 263.873 95.436 263.873 95.772C263.873 96.108 263.929 96.388 264.041 96.612C264.161 96.836 264.317 97.004 264.509 97.116C264.701 97.228 264.901 97.284 265.109 97.284ZM271.474 96.024V99H269.422V92.544H271.306V93.684C271.554 93.308 271.91 93.016 272.374 92.808C272.846 92.6 273.338 92.496 273.85 92.496V94.632C273.37 94.584 272.95 94.58 272.59 94.62C272.238 94.652 271.962 94.776 271.762 94.992C271.57 95.2 271.474 95.544 271.474 96.024ZM279.391 96.984V98.772C279.167 98.9 278.939 98.988 278.707 99.036C278.475 99.092 278.215 99.12 277.927 99.12C277.447 99.12 277.035 99.028 276.691 98.844C276.347 98.66 276.083 98.392 275.899 98.04C275.715 97.688 275.623 97.268 275.623 96.78V94.332H274.423V92.544H275.623V90.648H277.675V92.544H279.439V94.332H277.675V96.3C277.675 96.612 277.743 96.844 277.879 96.996C278.015 97.14 278.223 97.212 278.503 97.212C278.671 97.212 278.831 97.192 278.983 97.152C279.143 97.112 279.279 97.056 279.391 96.984Z" fill="#ADA3B0"/>
<path d="M204.2 231.35H203.108V233.978H200.84V225.362H204.2C204.952 225.362 205.596 225.474 206.132 225.698C206.676 225.914 207.092 226.242 207.38 226.682C207.668 227.114 207.812 227.654 207.812 228.302C207.812 228.95 207.668 229.502 207.38 229.958C207.092 230.406 206.676 230.75 206.132 230.99C205.596 231.23 204.952 231.35 204.2 231.35ZM204.188 227.27H203.108V229.442H204.188C204.636 229.442 204.976 229.338 205.208 229.13C205.44 228.922 205.556 228.654 205.556 228.326C205.556 227.99 205.44 227.73 205.208 227.546C204.976 227.362 204.636 227.27 204.188 227.27ZM212.621 231.206V227.522H214.673V233.978H212.789V233.282C212.613 233.522 212.361 233.718 212.033 233.87C211.713 234.022 211.365 234.098 210.989 234.098C210.565 234.098 210.181 234.01 209.837 233.834C209.493 233.65 209.221 233.374 209.021 233.006C208.829 232.63 208.733 232.158 208.733 231.59V227.522H210.785V231.206C210.785 231.558 210.865 231.822 211.025 231.998C211.193 232.174 211.421 232.262 211.709 232.262C211.845 232.262 211.981 232.226 212.117 232.154C212.261 232.074 212.381 231.958 212.477 231.806C212.573 231.646 212.621 231.446 212.621 231.206ZM220.344 231.962V233.75C220.12 233.878 219.892 233.966 219.66 234.014C219.428 234.07 219.168 234.098 218.88 234.098C218.4 234.098 217.988 234.006 217.644 233.822C217.3 233.638 217.036 233.37 216.852 233.018C216.668 232.666 216.576 232.246 216.576 231.758V229.31H215.376V227.522H216.576V225.626H218.628V227.522H220.392V229.31H218.628V231.278C218.628 231.59 218.696 231.822 218.832 231.974C218.968 232.118 219.176 232.19 219.456 232.19C219.624 232.19 219.784 232.17 219.936 232.13C220.096 232.09 220.232 232.034 220.344 231.962ZM229.877 233.978H223.985V225.362H226.253V231.926H229.877V233.978ZM233.753 234.098C233.273 234.098 232.829 234.014 232.421 233.846C232.013 233.67 231.657 233.43 231.353 233.126C231.049 232.814 230.809 232.458 230.633 232.058C230.465 231.65 230.381 231.214 230.381 230.75C230.381 230.286 230.465 229.854 230.633 229.454C230.809 229.046 231.049 228.69 231.353 228.386C231.657 228.074 232.013 227.834 232.421 227.666C232.829 227.49 233.273 227.402 233.753 227.402C234.233 227.402 234.677 227.49 235.085 227.666C235.493 227.834 235.849 228.074 236.153 228.386C236.457 228.69 236.693 229.046 236.861 229.454C237.037 229.854 237.125 230.286 237.125 230.75C237.125 231.214 237.037 231.65 236.861 232.058C236.693 232.458 236.457 232.814 236.153 233.126C235.849 233.43 235.493 233.67 235.085 233.846C234.677 234.014 234.233 234.098 233.753 234.098ZM233.753 232.262C233.969 232.262 234.169 232.206 234.353 232.094C234.545 231.982 234.697 231.814 234.809 231.59C234.929 231.366 234.989 231.086 234.989 230.75C234.989 230.414 234.929 230.134 234.809 229.91C234.697 229.686 234.545 229.522 234.353 229.418C234.169 229.306 233.969 229.25 233.753 229.25C233.545 229.25 233.345 229.306 233.153 229.418C232.961 229.522 232.805 229.686 232.685 229.91C232.573 230.134 232.517 230.414 232.517 230.75C232.517 231.086 232.573 231.366 232.685 231.59C232.805 231.814 232.961 231.982 233.153 232.094C233.345 232.206 233.545 232.262 233.753 232.262ZM240.119 230.582V233.978H238.067V227.522H239.951V228.302C240.207 228.022 240.487 227.802 240.791 227.642C241.103 227.482 241.463 227.402 241.871 227.402C242.511 227.402 243.031 227.61 243.431 228.026C243.839 228.442 244.043 229.042 244.043 229.826V233.978H241.991V230.51C241.991 230.102 241.915 229.79 241.763 229.574C241.619 229.358 241.391 229.25 241.079 229.25C240.911 229.25 240.751 229.294 240.599 229.382C240.455 229.47 240.339 229.61 240.251 229.802C240.163 229.994 240.119 230.254 240.119 230.582ZM248.212 236.414C247.62 236.414 247.096 236.31 246.64 236.102C246.184 235.902 245.824 235.614 245.56 235.238C245.296 234.862 245.152 234.426 245.128 233.93H247.12C247.16 234.218 247.268 234.438 247.444 234.59C247.628 234.742 247.88 234.818 248.2 234.818C248.584 234.818 248.872 234.718 249.064 234.518C249.264 234.318 249.364 234.022 249.364 233.63V232.874C249.196 233.114 248.968 233.302 248.68 233.438C248.392 233.574 248.072 233.642 247.72 233.642C247.2 233.642 246.728 233.506 246.304 233.234C245.88 232.954 245.544 232.578 245.296 232.106C245.048 231.634 244.924 231.106 244.924 230.522C244.924 229.914 245.04 229.378 245.272 228.914C245.504 228.442 245.824 228.074 246.232 227.81C246.64 227.538 247.108 227.402 247.636 227.402C248.044 227.402 248.4 227.466 248.704 227.594C249.008 227.714 249.284 227.91 249.532 228.182V227.522H251.416V233.606C251.416 234.478 251.128 235.162 250.552 235.658C249.984 236.162 249.204 236.414 248.212 236.414ZM247 230.534C247 230.934 247.104 231.254 247.312 231.494C247.52 231.734 247.796 231.854 248.14 231.854C248.38 231.854 248.588 231.798 248.764 231.686C248.948 231.574 249.088 231.418 249.184 231.218C249.288 231.018 249.34 230.786 249.34 230.522C249.34 230.122 249.228 229.802 249.004 229.562C248.788 229.314 248.5 229.19 248.14 229.19C247.796 229.19 247.52 229.314 247.312 229.562C247.104 229.802 247 230.126 247 230.534Z" fill="#ADA3B0"/>
<path d="M501.74 96.18C501.74 96.772 501.588 97.288 501.284 97.728C500.988 98.168 500.568 98.512 500.024 98.76C499.48 99 498.832 99.12 498.08 99.12C497.336 99.12 496.684 98.996 496.124 98.748C495.572 98.492 495.132 98.132 494.804 97.668C494.484 97.204 494.296 96.656 494.24 96.024H496.532C496.548 96.432 496.684 96.756 496.94 96.996C497.204 97.236 497.568 97.356 498.032 97.356C498.296 97.356 498.524 97.324 498.716 97.26C498.908 97.196 499.056 97.1 499.16 96.972C499.272 96.844 499.328 96.692 499.328 96.516C499.328 96.332 499.244 96.176 499.076 96.048C498.916 95.912 498.708 95.82 498.452 95.772L496.88 95.472C496.536 95.408 496.224 95.308 495.944 95.172C495.664 95.036 495.42 94.868 495.212 94.668C495.012 94.46 494.856 94.22 494.744 93.948C494.64 93.668 494.588 93.356 494.588 93.012C494.588 92.476 494.732 92.004 495.02 91.596C495.308 91.18 495.704 90.856 496.208 90.624C496.712 90.392 497.288 90.276 497.936 90.276C498.624 90.276 499.232 90.4 499.76 90.648C500.296 90.896 500.724 91.248 501.044 91.704C501.372 92.152 501.556 92.688 501.596 93.312H499.304C499.288 93.048 499.22 92.82 499.1 92.628C498.98 92.436 498.824 92.288 498.632 92.184C498.44 92.08 498.216 92.028 497.96 92.028C497.736 92.028 497.544 92.064 497.384 92.136C497.224 92.208 497.1 92.308 497.012 92.436C496.924 92.556 496.88 92.696 496.88 92.856C496.88 92.984 496.916 93.096 496.988 93.192C497.068 93.28 497.172 93.356 497.3 93.42C497.428 93.476 497.568 93.52 497.72 93.552L499.388 93.876C500.156 94.028 500.74 94.296 501.14 94.68C501.54 95.056 501.74 95.556 501.74 96.18ZM504.787 95.604V99H502.735V90.384H504.787V93.24C505.019 92.984 505.267 92.784 505.531 92.64C505.795 92.496 506.131 92.424 506.539 92.424C507.179 92.424 507.699 92.632 508.099 93.048C508.507 93.464 508.711 94.064 508.711 94.848V99H506.659V95.532C506.659 95.124 506.583 94.812 506.431 94.596C506.287 94.38 506.059 94.272 505.747 94.272C505.579 94.272 505.419 94.316 505.267 94.404C505.123 94.492 505.007 94.632 504.919 94.824C504.831 95.016 504.787 95.276 504.787 95.604ZM512.964 99.12C512.484 99.12 512.04 99.036 511.632 98.868C511.224 98.692 510.868 98.452 510.564 98.148C510.26 97.836 510.02 97.48 509.844 97.08C509.676 96.672 509.592 96.236 509.592 95.772C509.592 95.308 509.676 94.876 509.844 94.476C510.02 94.068 510.26 93.712 510.564 93.408C510.868 93.096 511.224 92.856 511.632 92.688C512.04 92.512 512.484 92.424 512.964 92.424C513.444 92.424 513.888 92.512 514.296 92.688C514.704 92.856 515.06 93.096 515.364 93.408C515.668 93.712 515.904 94.068 516.072 94.476C516.248 94.876 516.336 95.308 516.336 95.772C516.336 96.236 516.248 96.672 516.072 97.08C515.904 97.48 515.668 97.836 515.364 98.148C515.06 98.452 514.704 98.692 514.296 98.868C513.888 99.036 513.444 99.12 512.964 99.12ZM512.964 97.284C513.18 97.284 513.38 97.228 513.564 97.116C513.756 97.004 513.908 96.836 514.02 96.612C514.14 96.388 514.2 96.108 514.2 95.772C514.2 95.436 514.14 95.156 514.02 94.932C513.908 94.708 513.756 94.544 513.564 94.44C513.38 94.328 513.18 94.272 512.964 94.272C512.756 94.272 512.556 94.328 512.364 94.44C512.172 94.544 512.016 94.708 511.896 94.932C511.784 95.156 511.728 95.436 511.728 95.772C511.728 96.108 511.784 96.388 511.896 96.612C512.016 96.836 512.172 97.004 512.364 97.116C512.556 97.228 512.756 97.284 512.964 97.284ZM519.329 96.024V99H517.277V92.544H519.161V93.684C519.409 93.308 519.765 93.016 520.229 92.808C520.701 92.6 521.193 92.496 521.705 92.496V94.632C521.225 94.584 520.805 94.58 520.445 94.62C520.093 94.652 519.817 94.776 519.617 94.992C519.425 95.2 519.329 95.544 519.329 96.024ZM527.246 96.984V98.772C527.022 98.9 526.794 98.988 526.562 99.036C526.33 99.092 526.07 99.12 525.782 99.12C525.302 99.12 524.89 99.028 524.546 98.844C524.202 98.66 523.938 98.392 523.754 98.04C523.57 97.688 523.478 97.268 523.478 96.78V94.332H522.278V92.544H523.478V90.648H525.53V92.544H527.294V94.332H525.53V96.3C525.53 96.612 525.598 96.844 525.734 96.996C525.87 97.14 526.078 97.212 526.358 97.212C526.526 97.212 526.686 97.192 526.838 97.152C526.998 97.112 527.134 97.056 527.246 96.984ZM534.763 99.18C534.155 99.18 533.583 99.068 533.047 98.844C532.519 98.612 532.055 98.292 531.655 97.884C531.255 97.468 530.943 96.988 530.719 96.444C530.495 95.9 530.383 95.312 530.383 94.68C530.383 94.048 530.495 93.464 530.719 92.928C530.943 92.384 531.255 91.908 531.655 91.5C532.055 91.092 532.519 90.776 533.047 90.552C533.583 90.32 534.155 90.204 534.763 90.204C535.555 90.204 536.271 90.368 536.911 90.696C537.551 91.016 538.075 91.468 538.483 92.052C538.891 92.628 539.139 93.296 539.227 94.056H536.827C536.771 93.696 536.647 93.38 536.455 93.108C536.263 92.828 536.023 92.612 535.735 92.46C535.455 92.308 535.139 92.232 534.787 92.232C534.467 92.232 534.179 92.292 533.923 92.412C533.667 92.524 533.447 92.688 533.263 92.904C533.087 93.12 532.951 93.38 532.855 93.684C532.759 93.98 532.711 94.312 532.711 94.68C532.711 95.048 532.759 95.384 532.855 95.688C532.951 95.992 533.087 96.252 533.263 96.468C533.447 96.684 533.667 96.852 533.923 96.972C534.179 97.092 534.467 97.152 534.787 97.152C535.139 97.152 535.455 97.076 535.735 96.924C536.023 96.764 536.259 96.548 536.443 96.276C536.635 95.996 536.763 95.676 536.827 95.316H539.227C539.131 96.084 538.879 96.76 538.471 97.344C538.063 97.92 537.539 98.372 536.899 98.7C536.267 99.02 535.555 99.18 534.763 99.18ZM544.015 99V98.376C543.791 98.632 543.531 98.82 543.235 98.94C542.939 99.06 542.583 99.12 542.167 99.12C541.495 99.12 540.951 98.936 540.535 98.568C540.127 98.192 539.923 97.7 539.923 97.092C539.923 96.46 540.171 95.98 540.667 95.652C541.163 95.316 541.871 95.148 542.791 95.148C542.967 95.148 543.135 95.156 543.295 95.172C543.455 95.18 543.603 95.196 543.739 95.22V94.908C543.739 94.628 543.659 94.412 543.499 94.26C543.347 94.108 543.127 94.032 542.839 94.032C542.559 94.032 542.335 94.108 542.167 94.26C542.007 94.412 541.907 94.628 541.867 94.908H540.019C540.059 94.404 540.203 93.968 540.451 93.6C540.699 93.224 541.027 92.936 541.435 92.736C541.851 92.528 542.323 92.424 542.851 92.424C543.739 92.424 544.431 92.652 544.927 93.108C545.423 93.564 545.671 94.2 545.671 95.016V99H544.015ZM541.855 97.032C541.855 97.24 541.923 97.404 542.059 97.524C542.203 97.644 542.399 97.704 542.646 97.704C542.991 97.704 543.259 97.628 543.451 97.476C543.643 97.324 543.739 97.116 543.739 96.852V96.444C543.587 96.412 543.447 96.392 543.319 96.384C543.191 96.368 543.059 96.36 542.923 96.36C542.579 96.36 542.315 96.416 542.131 96.528C541.947 96.64 541.855 96.808 541.855 97.032ZM549.025 99H546.949V90.384H549.025V99ZM552.447 99H550.371V90.384H552.447V99Z" fill="#ADA3B0"/>
<path d="M520.732 231.978H514.84V223.362H517.108V229.926H520.732V231.978ZM524.609 232.098C524.129 232.098 523.685 232.014 523.277 231.846C522.869 231.67 522.513 231.43 522.209 231.126C521.905 230.814 521.665 230.458 521.489 230.058C521.321 229.65 521.237 229.214 521.237 228.75C521.237 228.286 521.321 227.854 521.489 227.454C521.665 227.046 521.905 226.69 522.209 226.386C522.513 226.074 522.869 225.834 523.277 225.666C523.685 225.49 524.129 225.402 524.609 225.402C525.089 225.402 525.533 225.49 525.941 225.666C526.349 225.834 526.705 226.074 527.009 226.386C527.313 226.69 527.549 227.046 527.717 227.454C527.893 227.854 527.981 228.286 527.981 228.75C527.981 229.214 527.893 229.65 527.717 230.058C527.549 230.458 527.313 230.814 527.009 231.126C526.705 231.43 526.349 231.67 525.941 231.846C525.533 232.014 525.089 232.098 524.609 232.098ZM524.609 230.262C524.825 230.262 525.025 230.206 525.209 230.094C525.401 229.982 525.553 229.814 525.665 229.59C525.785 229.366 525.845 229.086 525.845 228.75C525.845 228.414 525.785 228.134 525.665 227.91C525.553 227.686 525.401 227.522 525.209 227.418C525.025 227.306 524.825 227.25 524.609 227.25C524.401 227.25 524.201 227.306 524.009 227.418C523.817 227.522 523.661 227.686 523.541 227.91C523.429 228.134 523.373 228.414 523.373 228.75C523.373 229.086 523.429 229.366 523.541 229.59C523.661 229.814 523.817 229.982 524.009 230.094C524.201 230.206 524.401 230.262 524.609 230.262ZM530.974 228.582V231.978H528.922V225.522H530.806V226.302C531.062 226.022 531.342 225.802 531.646 225.642C531.958 225.482 532.318 225.402 532.726 225.402C533.366 225.402 533.886 225.61 534.286 226.026C534.694 226.442 534.898 227.042 534.898 227.826V231.978H532.846V228.51C532.846 228.102 532.77 227.79 532.618 227.574C532.474 227.358 532.246 227.25 531.934 227.25C531.766 227.25 531.606 227.294 531.454 227.382C531.31 227.47 531.194 227.61 531.106 227.802C531.018 227.994 530.974 228.254 530.974 228.582ZM539.068 234.414C538.476 234.414 537.952 234.31 537.496 234.102C537.04 233.902 536.68 233.614 536.416 233.238C536.152 232.862 536.008 232.426 535.984 231.93H537.976C538.016 232.218 538.124 232.438 538.3 232.59C538.484 232.742 538.736 232.818 539.056 232.818C539.44 232.818 539.728 232.718 539.92 232.518C540.12 232.318 540.22 232.022 540.22 231.63V230.874C540.052 231.114 539.824 231.302 539.536 231.438C539.248 231.574 538.928 231.642 538.576 231.642C538.056 231.642 537.584 231.506 537.16 231.234C536.736 230.954 536.4 230.578 536.152 230.106C535.904 229.634 535.78 229.106 535.78 228.522C535.78 227.914 535.896 227.378 536.128 226.914C536.36 226.442 536.68 226.074 537.088 225.81C537.496 225.538 537.964 225.402 538.492 225.402C538.9 225.402 539.256 225.466 539.56 225.594C539.864 225.714 540.14 225.91 540.388 226.182V225.522H542.272V231.606C542.272 232.478 541.984 233.162 541.408 233.658C540.84 234.162 540.06 234.414 539.068 234.414ZM537.856 228.534C537.856 228.934 537.96 229.254 538.168 229.494C538.376 229.734 538.652 229.854 538.996 229.854C539.236 229.854 539.444 229.798 539.62 229.686C539.804 229.574 539.944 229.418 540.04 229.218C540.144 229.018 540.196 228.786 540.196 228.522C540.196 228.122 540.084 227.802 539.86 227.562C539.644 227.314 539.356 227.19 538.996 227.19C538.652 227.19 538.376 227.314 538.168 227.562C537.96 227.802 537.856 228.126 537.856 228.534ZM550.169 232.158C549.561 232.158 548.989 232.046 548.453 231.822C547.925 231.59 547.461 231.27 547.061 230.862C546.661 230.446 546.349 229.966 546.125 229.422C545.901 228.878 545.789 228.29 545.789 227.658C545.789 227.026 545.901 226.442 546.125 225.906C546.349 225.362 546.661 224.886 547.061 224.478C547.461 224.07 547.925 223.754 548.453 223.53C548.989 223.298 549.561 223.182 550.169 223.182C550.961 223.182 551.677 223.346 552.317 223.674C552.957 223.994 553.481 224.446 553.889 225.03C554.297 225.606 554.545 226.274 554.633 227.034H552.233C552.177 226.674 552.053 226.358 551.861 226.086C551.669 225.806 551.429 225.59 551.141 225.438C550.861 225.286 550.545 225.21 550.193 225.21C549.873 225.21 549.585 225.27 549.329 225.39C549.073 225.502 548.853 225.666 548.669 225.882C548.493 226.098 548.357 226.358 548.261 226.662C548.165 226.958 548.117 227.29 548.117 227.658C548.117 228.026 548.165 228.362 548.261 228.666C548.357 228.97 548.493 229.23 548.669 229.446C548.853 229.662 549.073 229.83 549.329 229.95C549.585 230.07 549.873 230.13 550.193 230.13C550.545 230.13 550.861 230.054 551.141 229.902C551.429 229.742 551.665 229.526 551.849 229.254C552.041 228.974 552.169 228.654 552.233 228.294H554.633C554.537 229.062 554.285 229.738 553.877 230.322C553.469 230.898 552.945 231.35 552.305 231.678C551.673 231.998 550.961 232.158 550.169 232.158ZM559.421 231.978V231.354C559.197 231.61 558.937 231.798 558.641 231.918C558.345 232.038 557.989 232.098 557.573 232.098C556.901 232.098 556.357 231.914 555.941 231.546C555.533 231.17 555.329 230.678 555.329 230.07C555.329 229.438 555.577 228.958 556.073 228.63C556.569 228.294 557.277 228.126 558.197 228.126C558.373 228.126 558.541 228.134 558.701 228.15C558.861 228.158 559.009 228.174 559.145 228.198V227.886C559.145 227.606 559.065 227.39 558.905 227.238C558.753 227.086 558.533 227.01 558.245 227.01C557.965 227.01 557.741 227.086 557.573 227.238C557.413 227.39 557.313 227.606 557.273 227.886H555.425C555.465 227.382 555.609 226.946 555.857 226.578C556.105 226.202 556.433 225.914 556.841 225.714C557.257 225.506 557.729 225.402 558.257 225.402C559.145 225.402 559.837 225.63 560.333 226.086C560.829 226.542 561.077 227.178 561.077 227.994V231.978H559.421ZM557.261 230.01C557.261 230.218 557.329 230.382 557.465 230.502C557.609 230.622 557.805 230.682 558.053 230.682C558.397 230.682 558.665 230.606 558.857 230.454C559.049 230.302 559.145 230.094 559.145 229.83V229.422C558.993 229.39 558.853 229.37 558.725 229.362C558.597 229.346 558.465 229.338 558.329 229.338C557.985 229.338 557.721 229.394 557.537 229.506C557.353 229.618 557.261 229.786 557.261 230.01ZM564.432 231.978H562.356V223.362H564.432V231.978ZM567.853 231.978H565.777V223.362H567.853V231.978Z" fill="#ADA3B0"/>
<g opacity="0.5">
<path d="M467.494 57.7292C473.661 55.5626 486.003 53.5819 493.994 60.2292C499.971 65.2004 502.327 75.2292 502.494 78.2292" stroke="#5A4761" stroke-width="3" stroke-linecap="round"/>
<path d="M469.485 51.1836L466.919 57.2186C466.732 57.6592 466.883 58.1708 467.28 58.4387L472.486 61.9536" stroke="#5A4761" stroke-width="3" stroke-linecap="round"/>
</g>
<g opacity="0.5">
<path d="M299 57.7292C292.833 55.5626 280.492 53.5819 272.5 60.2292C266.524 65.2004 264.167 75.2292 264 78.2292" stroke="#5A4761" stroke-width="3" stroke-linecap="round"/>
<path d="M297.009 51.1836L299.575 57.2186C299.762 57.6592 299.611 58.1708 299.214 58.4387L294.008 61.9536" stroke="#5A4761" stroke-width="3" stroke-linecap="round"/>
</g>
<g opacity="0.5">
<path d="M260.889 269.277C254.384 269.919 241.925 268.916 235.738 260.563C231.111 254.316 231.2 244.014 231.749 241.061" stroke="#5A4761" stroke-width="3" stroke-linecap="round"/>
<path d="M257.401 275.164L261.325 269.909C261.612 269.526 261.586 268.993 261.264 268.638L257.04 263.989" stroke="#5A4761" stroke-width="3" stroke-linecap="round"/>
</g>
<g opacity="0.5">
<path d="M505.494 266.5C511.661 268.666 524.003 270.647 531.994 264C537.971 259.029 540.327 249 540.494 246" stroke="#5A4761" stroke-width="3" stroke-linecap="round"/>
<path d="M507.485 273.045L504.919 267.01C504.732 266.57 504.883 266.058 505.28 265.79L510.486 262.275" stroke="#5A4761" stroke-width="3" stroke-linecap="round"/>
</g>
<rect x="316" width="1" height="354" fill="#D9D9D9"/>
<rect x="450" width="1" height="354" fill="#D9D9D9"/>
<defs>
<clipPath id="clip0_2_5197">
<rect width="133" height="253" fill="white" transform="translate(317 36)"/>
</clipPath>
</defs>
</svg>
