<svg width="228" height="55" viewBox="0 0 228 55" fill="none" xmlns="http://www.w3.org/2000/svg">
<path fill-rule="evenodd" clip-rule="evenodd" d="M4.31641 7.91431H49.4051V28.1766L31.9663 45.8905H21.149L4.31641 28.1591V7.91431ZM7.6187 11.2166V26.8413L22.5674 42.5882H30.5833L46.1028 26.8238V11.2166H7.6187Z" fill="#58445E"/>
<path fill-rule="evenodd" clip-rule="evenodd" d="M0.0259926 6.92076C0.0259926 6.37085 0.0292568 5.82045 0.0325223 5.26984C0.0401455 3.98443 0.0477752 2.69794 0.013894 1.41416C-0.0163523 0.43656 0.322407 -0.0108164 1.47177 0.000229955C4.83517 0.0388921 8.21066 0.033369 11.5801 0.000229955C12.6387 -0.0108164 13.0198 0.381329 12.9714 1.32027C12.9429 1.87285 12.9509 2.42543 12.9589 2.97801C12.9662 3.48035 12.9735 3.9827 12.9533 4.48504C12.9109 5.44055 13.3888 5.81613 14.393 5.79956C15.8993 5.77746 17.4116 5.76089 18.9179 5.80508C19.9946 5.83822 20.3334 5.38532 20.2911 4.46847C20.2613 3.81932 20.2682 3.17017 20.275 2.52102V2.52092C20.2793 2.11518 20.2836 1.70944 20.279 1.3037C20.2729 0.392375 20.7024 -0.0108164 21.7429 0.000229955C25.1607 0.033369 28.5846 0.033369 32.0025 0.000229955C32.9824 -0.0108164 33.3696 0.375805 33.3635 1.22637C33.3579 1.76235 33.3615 2.29712 33.3651 2.83182V2.83239V2.83248C33.3691 3.44363 33.3732 4.05469 33.3635 4.66731C33.3514 5.41846 33.7507 5.77194 34.5432 5.77746C36.2007 5.78851 37.8642 5.78851 39.5217 5.78299C40.4049 5.78299 40.7679 5.3798 40.7316 4.56789C40.709 3.98169 40.7139 3.39391 40.7189 2.80624C40.7232 2.29205 40.7275 1.77794 40.7134 1.26504C40.6892 0.419991 41.0219 -0.00529321 42.0201 0.000229955C45.4923 0.0223226 48.9586 0.0167995 52.4309 0.000229955C53.3201 0.000229955 53.7012 0.33162 53.7012 1.14905C53.6831 5.00422 53.677 8.85939 53.7073 12.7146C53.7073 13.3718 53.3987 13.6977 52.812 13.9904C44.4942 18.177 36.1765 22.3691 27.8769 26.5888C27.1267 26.9699 26.5581 26.9588 25.808 26.5722C17.6052 22.4077 9.37817 18.2543 1.13301 14.134C0.322407 13.7253 -0.0284509 13.2835 0.0017955 12.4274C0.0486285 11.1368 0.0385279 9.84348 0.0284359 8.55128C0.0241888 8.00748 0.0199433 7.46388 0.0199433 6.92076H0.0259926ZM24.6417 54.9891L24.637 54.9867C24.6539 54.8243 24.6699 54.6914 24.6837 54.5776L24.6837 54.5775C24.7089 54.3688 24.7263 54.2249 24.7263 54.0833C24.7281 51.9219 24.7278 49.7609 24.7276 47.6001V47.594V47.5939C24.727 42.1867 24.7263 36.7808 24.7566 31.372C24.7626 30.5104 24.2968 30.1846 23.6012 29.8311C19.8808 27.9615 16.165 26.0863 12.4492 24.2112C8.73351 22.3361 5.01777 20.461 1.2975 18.5914C1.22261 18.5537 1.148 18.5057 1.07154 18.4564C0.789798 18.275 0.483043 18.0775 0.0453017 18.3208C0.0453017 19.8127 0.0455435 21.3051 0.0457854 22.7979V22.798C0.0467534 28.7711 0.0477224 34.7507 0.0332031 40.7338C0.0332031 41.8605 0.704673 42.4681 1.6907 42.9762C4.44991 44.4023 7.19999 45.8479 9.94958 47.2933C11.0761 47.8854 12.2026 48.4775 13.3295 49.0683C17.0242 51.0006 20.7188 52.9329 24.637 54.9867L24.6356 55.0001L24.6417 54.9891ZM28.9846 39.6186C28.9829 40.5976 28.9812 41.5768 28.9812 42.5564V53.5641C28.9812 55.0388 28.9993 55.0554 30.3664 54.3373C33.3393 52.7818 36.3091 51.2226 39.2788 49.6634C43.5847 47.4028 47.8903 45.1423 52.2043 42.8933C53.2932 42.33 53.7287 41.5788 53.7287 40.4411C53.6985 33.3769 53.6985 26.3073 53.7287 19.2431C53.7287 18.2987 53.6078 17.9783 52.5249 18.5306C45.0178 22.3472 37.4925 26.1416 29.9551 29.9084C29.1747 30.3005 28.957 30.77 28.963 31.5432C28.9941 34.2365 28.9893 36.9268 28.9846 39.6186Z" fill="#58445E"/>
<path d="M81.7962 26.5705V34.0465H76.5706V26.5705L69.6309 14.1658H75.2711L79.3631 21.7803L83.538 14.1658H88.7912L81.7962 26.5705Z" fill="#58445E"/>
<path d="M96.1267 34.0465H90.9011V14.1658H96.1267V34.0465Z" fill="#58445E"/>
<path d="M114.177 29.5055V34.0465H100.132V14.1658H113.984V18.7068H105.358V21.5588H113.182V26.0998H105.358V29.5055H114.177Z" fill="#58445E"/>
<path d="M130.88 34.0465H117.304V14.1658H122.53V29.3117H130.88V34.0465Z" fill="#58445E"/>
<path d="M141.489 34.0465H133.748V14.1658H141.489C147.765 14.1658 151.719 18.2084 151.719 23.9954C151.719 29.7824 147.627 34.0465 141.489 34.0465ZM138.973 18.6791V29.5332H141.185C144.641 29.5332 146.355 27.7334 146.355 23.9954C146.355 20.4789 144.586 18.6791 141.185 18.6791H138.973Z" fill="#58445E"/>
<path d="M159.655 34.0465H154.43V14.1658H167.95V18.6791H159.655V22.3895H166.595V26.9305H159.655V34.0465Z" fill="#58445E"/>
<path d="M189.686 24.0785C189.686 30.1147 185.18 34.4619 179.429 34.4619C173.706 34.4619 169.199 30.1147 169.199 24.0785C169.199 18.0423 173.706 13.7505 179.429 13.7505C185.18 13.7505 189.686 18.0423 189.686 24.0785ZM174.563 24.0785C174.563 27.2074 176.305 29.7824 179.429 29.7824C182.553 29.7824 184.295 27.2074 184.295 24.0785C184.295 20.9496 182.553 18.4299 179.429 18.4299C176.305 18.4299 174.563 20.9496 174.563 24.0785Z" fill="#58445E"/>
<path d="M203.397 34.0465L199.332 27.4289H197.618V34.0465H192.392V14.1658H200.521C205.83 14.1658 208.954 16.5194 208.954 20.8112C208.954 23.6078 207.184 25.5737 204.751 26.5982L209.756 34.0465H203.397ZM200.3 18.4853H197.618V23.1094H200.3C202.705 23.1094 203.756 22.2233 203.756 20.8112C203.756 19.399 202.705 18.4853 200.3 18.4853Z" fill="#58445E"/>
<path d="M221.776 34.0465H216.55V18.9006H210.468V14.1658H227.859V18.9006H221.776V34.0465Z" fill="#58445E"/>
</svg>
